<svg width="157" height="25" viewBox="0 0 157 25" fill="none" xmlns="http://www.w3.org/2000/svg">
<g clip-path="url(#clip0_4_542)">
<path d="M23.3224 1H2.75001C1.77778 1 1 1.77419 1 2.74194V23.2581C1 24.1871 1.77778 25 2.75001 25H23.2446C24.2168 25 24.9946 24.2258 24.9946 23.2581V2.70323C25.0724 1.77419 24.2946 1 23.3224 1ZM8.11672 21.4H4.57781V9.98065H8.11672V21.4ZM6.32782 8.39355C5.16114 8.39355 4.26669 7.46452 4.26669 6.34194C4.26669 5.21936 5.20003 4.29032 6.32782 4.29032C7.45561 4.29032 8.38895 5.21936 8.38895 6.34194C8.38895 7.46452 7.53338 8.39355 6.32782 8.39355ZM21.5335 21.4H17.9946V15.8645C17.9946 14.5484 17.9557 12.8065 16.1279 12.8065C14.2612 12.8065 13.989 14.2774 13.989 15.7484V21.4H10.4501V9.98065H13.9112V11.5677H13.9501C14.4557 10.6387 15.5834 9.70968 17.3335 9.70968C20.9502 9.70968 21.6113 12.0323 21.6113 15.2065V21.4H21.5335Z" fill="white"/>
</g>
<g clip-path="url(#clip1_4_542)">
<path d="M102.894 1.00098C104.542 1.00421 105.012 1.01806 106.052 1.07741C107.37 1.11612 108.222 1.30967 108.997 1.61935C109.772 1.92903 110.431 2.31612 111.09 2.97419C111.749 3.63225 112.175 4.29032 112.447 5.10322C112.718 5.91612 112.95 6.80644 112.989 8.04515C113.028 9.36128 112.95 9.78709 112.95 13.0774L112.95 14.7333C112.95 14.8092 112.95 14.8828 112.95 14.9541L112.949 15.3562C112.947 16.6766 112.939 17.1264 112.912 17.9935C112.873 19.3097 112.64 20.1613 112.369 20.9355C112.098 21.7097 111.671 22.4064 111.013 23.0645C110.354 23.7226 109.695 24.1484 108.881 24.4193C108.067 24.6903 107.253 24.9226 105.936 24.9613C105.584 24.9716 105.302 24.9792 105.014 24.9847L104.796 24.9885C104.427 24.9943 104.021 24.9971 103.433 24.9986L103.056 24.9993C102.99 24.9993 102.921 24.9994 102.85 24.9995L99.3208 24.9994C97.5028 24.9969 97.0687 24.9845 96.0146 24.9226C94.6969 24.8839 93.8443 24.6516 93.0692 24.3806C92.2941 24.1097 91.5965 23.6839 90.9377 23.0258C90.2789 22.3677 89.8526 21.7097 89.5813 20.8968C89.31 20.0839 89.0775 19.271 89.0387 17.9548C89.031 17.6916 89.0248 17.4671 89.0198 17.25L89.0133 16.926C89.0069 16.5636 89.0036 16.1783 89.0019 15.6255L89.001 15.2725C89.0009 15.21 89.0008 15.1454 89.0007 15.0788L89.0005 12.38C89.0052 9.65892 89.0413 9.27354 89.0775 8.04515C89.1162 6.72902 89.31 5.87741 89.6201 5.10322C89.8913 4.29032 90.3176 3.63225 90.9765 2.97419C91.6353 2.31612 92.2941 1.85161 93.108 1.58064C93.9218 1.30967 94.7357 1.07741 96.0533 1.0387C96.9757 1.01161 97.4233 1.00348 98.7388 1.00104L102.894 1.00098ZM103.092 3.20718H99.0131C98.1596 3.20837 97.653 3.2115 97.1937 3.21972L96.984 3.22389C96.7407 3.2292 96.4977 3.23612 96.2084 3.24515C95.007 3.28386 94.3869 3.51612 93.9606 3.67096C93.418 3.90322 93.0305 4.13548 92.6042 4.56128C92.2166 4.94838 91.9453 5.37419 91.7128 5.91612C91.5578 6.38064 91.3253 6.99999 91.2865 8.16128C91.2775 8.45032 91.2705 8.69298 91.2652 8.936L91.261 9.14548C91.2535 9.56896 91.2502 10.0327 91.2488 10.7721L91.2481 11.3819C91.248 11.4563 91.248 11.5329 91.2479 11.612L91.2478 17.8C91.2865 19 91.519 19.6193 91.6741 20.0452C91.9453 20.5871 92.1779 20.9742 92.6042 21.4C92.9917 21.8258 93.418 22.0968 93.9606 22.329C94.4256 22.4839 95.0457 22.7161 96.2084 22.7548C97.0636 22.7815 97.5318 22.7898 98.7824 22.7924L99.402 22.7932C99.4776 22.7933 99.5555 22.7933 99.6361 22.7933L105.858 22.7935C107.06 22.7548 107.68 22.5226 108.106 22.3677C108.649 22.0968 109.036 21.8645 109.462 21.4387C109.889 21.0516 110.16 20.6258 110.393 20.0839C110.548 19.6193 110.78 19 110.819 17.8387C110.827 17.591 110.834 17.3773 110.842 17.1683L110.849 16.9597C110.876 16.1926 110.896 15.3561 110.896 13L110.896 11.3819C110.896 11.3076 110.896 11.2356 110.896 11.1658L110.895 10.7721C110.893 9.47819 110.885 9.02838 110.858 8.16128C110.819 6.96128 110.586 6.34193 110.431 5.91612C110.16 5.37419 109.928 4.98709 109.501 4.56128C109.114 4.17419 108.687 3.90322 108.145 3.67096C107.68 3.51612 107.06 3.28386 105.897 3.24515C105.608 3.23612 105.365 3.2292 105.121 3.22389L104.912 3.21972C104.452 3.2115 103.946 3.20837 103.092 3.20718ZM101.014 6.84515C104.463 6.84515 107.215 9.55483 107.215 13C107.215 16.4452 104.386 19.1548 101.014 19.1548C97.6423 19.1548 94.8519 16.4452 94.8519 13C94.8519 9.63225 97.5648 6.84515 101.014 6.84515ZM101.014 8.97419C98.8049 8.97419 96.9834 10.7935 96.9834 13C96.9834 15.2064 98.7662 17.0258 101.014 17.0258C103.262 17.0258 105.044 15.2452 105.044 13C105.044 10.7548 103.262 8.97419 101.014 8.97419ZM107.486 5.14193C108.278 5.14193 108.92 5.78317 108.92 6.57419C108.92 7.3652 108.278 8.00644 107.486 8.00644C106.694 8.00644 106.052 7.3652 106.052 6.57419C106.052 5.78317 106.694 5.14193 107.486 5.14193Z" fill="white"/>
</g>
<g clip-path="url(#clip2_4_542)">
<path d="M67.6452 1H46.3548C45.5806 1 45 1.61935 45 2.35484V23.6452C45 24.4194 45.6194 25 46.3548 25H57.8129V15.671H54.7161V12.071H57.8129V9.4C57.8129 6.30323 59.671 4.6 62.4581 4.6C63.3871 4.6 64.3161 4.63871 65.2452 4.75484V7.96774H63.3871C61.9161 7.96774 61.6065 8.66452 61.6065 9.70968V11.9935H65.129L64.6258 15.6323H61.529V24.8452H67.6452C68.4194 24.8452 69 24.2645 69 23.4903V2.35484C68.9613 1.58065 68.3419 1 67.6452 1Z" fill="white"/>
</g>
<path d="M140.471 23.1645C149.606 23.1645 154.561 15.6161 154.561 9.07419C154.561 8.91936 154.561 8.64839 154.523 8.41613C155.49 7.71936 156.342 6.82903 157 5.86129C156.071 6.2871 155.142 6.51935 154.174 6.63548C155.219 6.01613 155.994 5.04839 156.342 3.8871C155.374 4.42903 154.368 4.85484 153.168 5.0871C152.239 4.11935 151 3.5 149.568 3.5C146.819 3.5 144.574 5.74516 144.574 8.49355C144.574 8.88065 144.613 9.26774 144.69 9.65484C140.703 9.38387 137.065 7.40968 134.587 4.42903C134.161 5.20323 133.929 6.01613 133.929 6.90645C133.929 8.64839 134.819 10.1194 136.174 11.0097C135.361 10.971 134.587 10.7387 133.929 10.3903C133.929 10.429 133.929 10.429 133.929 10.429C133.929 12.7903 135.632 14.8419 137.877 15.3065C137.452 15.4226 136.987 15.4613 136.639 15.4613C136.329 15.4613 135.981 15.4226 135.71 15.3452C136.368 17.3194 138.187 18.7516 140.355 18.7903C138.652 20.1065 136.523 20.9194 134.239 20.9194C133.774 20.9968 133.387 20.9194 133 20.8806C135.09 22.3516 137.684 23.1645 140.471 23.1645Z" fill="white"/>
<defs>
<clipPath id="clip0_4_542">
<rect width="24" height="24" fill="white" transform="translate(1 1)"/>
</clipPath>
<clipPath id="clip1_4_542">
<rect width="24" height="24" fill="white" transform="translate(89 1)"/>
</clipPath>
<clipPath id="clip2_4_542">
<rect width="24" height="24" fill="white" transform="translate(45 1)"/>
</clipPath>
</defs>
</svg>
