<svg width="96" height="220" viewBox="0 0 96 220" fill="none" xmlns="http://www.w3.org/2000/svg">
<path d="M0 4C0 1.79086 1.79086 0 4 0H580C582.209 0 584 1.79086 584 4V216C584 218.209 582.209 220 580 220H3.99998C1.79085 220 0 218.209 0 216V4Z" fill="white"/>
<path d="M0.5 4C0.5 2.067 2.067 0.5 4 0.5H580C581.933 0.5 583.5 2.067 583.5 4V216C583.5 217.933 581.933 219.5 580 219.5H3.99998C2.06699 219.5 0.5 217.933 0.5 216V4Z" stroke="#52503B" stroke-opacity="0.1"/>
<g clip-path="url(#clip0_4_426)">
<path d="M48.5927 40.4894L42.9726 39.62L40.4266 34.2794C40.2403 33.9069 39.7435 33.9069 39.5572 34.2794L37.0111 39.6511L31.4221 40.4894C31.0184 40.5515 30.8632 41.0794 31.1737 41.3588L35.2412 45.5505L34.2787 51.419C34.2166 51.8226 34.6202 52.1642 34.9928 51.9158L40.054 49.1523L45.084 51.9158C45.4256 52.1021 45.8603 51.7916 45.7671 51.419L44.8046 45.5505L48.8721 41.3588C49.1205 41.0794 48.9963 40.5515 48.5927 40.4894Z" fill="#52503B"/>
</g>
<g clip-path="url(#clip1_4_426)">
<path d="M88.5927 40.4894L82.9726 39.62L80.4266 34.2794C80.2403 33.9069 79.7435 33.9069 79.5572 34.2794L77.0111 39.6511L71.4221 40.4894C71.0184 40.5515 70.8632 41.0794 71.1737 41.3588L75.2412 45.5505L74.2787 51.419C74.2166 51.8226 74.6202 52.1642 74.9928 51.9158L80.054 49.1523L85.084 51.9158C85.4256 52.1021 85.8603 51.7916 85.7671 51.419L84.8046 45.5505L88.8721 41.3588C89.1205 41.0794 88.9963 40.5515 88.5927 40.4894Z" fill="#52503B"/>
</g>
<g clip-path="url(#clip2_4_426)">
<path d="M68.5927 40.4894L62.9726 39.62L60.4266 34.2794C60.2403 33.9069 59.7435 33.9069 59.5572 34.2794L57.0111 39.6511L51.4221 40.4894C51.0184 40.5515 50.8632 41.0794 51.1737 41.3588L55.2412 45.5505L54.2787 51.419C54.2166 51.8226 54.6202 52.1642 54.9928 51.9158L60.054 49.1523L65.084 51.9158C65.4256 52.1021 65.8603 51.7916 65.7671 51.419L64.8046 45.5505L68.8721 41.3588C69.1205 41.0794 68.9963 40.5515 68.5927 40.4894Z" fill="#52503B"/>
</g>
<g clip-path="url(#clip3_4_426)">
<path d="M108.593 40.4894L102.973 39.62L100.427 34.2794C100.24 33.9069 99.7435 33.9069 99.5572 34.2794L97.0111 39.6511L91.4221 40.4894C91.0184 40.5515 90.8632 41.0794 91.1737 41.3588L95.2412 45.5505L94.2787 51.419C94.2166 51.8226 94.6202 52.1642 94.9928 51.9158L100.054 49.1523L105.084 51.9158C105.426 52.1021 105.86 51.7916 105.767 51.419L104.805 45.5505L108.872 41.3588C109.121 41.0794 108.996 40.5515 108.593 40.4894Z" fill="#52503B"/>
</g>
<path d="M50.68 172.08C50.3707 171.429 49.9227 170.928 49.336 170.576C48.7493 170.213 48.0667 170.032 47.288 170.032C46.5093 170.032 45.8053 170.213 45.176 170.576C44.5573 170.928 44.0667 171.44 43.704 172.112C43.352 172.773 43.176 173.541 43.176 174.416C43.176 175.291 43.352 176.059 43.704 176.72C44.0667 177.381 44.5573 177.893 45.176 178.256C45.8053 178.608 46.5093 178.784 47.288 178.784C48.376 178.784 49.272 178.459 49.976 177.808C50.68 177.157 51.0907 176.277 51.208 175.168H46.76V173.984H52.76V175.104C52.6747 176.021 52.3867 176.864 51.896 177.632C51.4053 178.389 50.76 178.992 49.96 179.44C49.16 179.877 48.2693 180.096 47.288 180.096C46.2533 180.096 45.3093 179.856 44.456 179.376C43.6027 178.885 42.9253 178.208 42.424 177.344C41.9333 176.48 41.688 175.504 41.688 174.416C41.688 173.328 41.9333 172.352 42.424 171.488C42.9253 170.613 43.6027 169.936 44.456 169.456C45.3093 168.965 46.2533 168.72 47.288 168.72C48.472 168.72 49.5173 169.013 50.424 169.6C51.3413 170.187 52.008 171.013 52.424 172.08H50.68ZM56.1411 172.656C56.3971 172.155 56.7598 171.765 57.2291 171.488C57.7091 171.211 58.2905 171.072 58.9731 171.072V172.576H58.5891C56.9571 172.576 56.1411 173.461 56.1411 175.232V180H54.6851V171.232H56.1411V172.656ZM68.6539 175.28C68.6539 175.557 68.6379 175.851 68.6059 176.16H61.5979C61.6512 177.024 61.9445 177.701 62.4779 178.192C63.0219 178.672 63.6779 178.912 64.4459 178.912C65.0752 178.912 65.5979 178.768 66.0139 178.48C66.4405 178.181 66.7392 177.787 66.9099 177.296H68.4779C68.2432 178.139 67.7739 178.827 67.0699 179.36C66.3659 179.883 65.4912 180.144 64.4459 180.144C63.6139 180.144 62.8672 179.957 62.2059 179.584C61.5552 179.211 61.0432 178.683 60.6699 178C60.2965 177.307 60.1099 176.507 60.1099 175.6C60.1099 174.693 60.2912 173.899 60.6539 173.216C61.0165 172.533 61.5232 172.011 62.1739 171.648C62.8352 171.275 63.5925 171.088 64.4459 171.088C65.2779 171.088 66.0139 171.269 66.6539 171.632C67.2939 171.995 67.7845 172.496 68.1259 173.136C68.4779 173.765 68.6539 174.48 68.6539 175.28ZM67.1499 174.976C67.1499 174.421 67.0272 173.947 66.7819 173.552C66.5365 173.147 66.2005 172.843 65.7739 172.64C65.3579 172.427 64.8939 172.32 64.3819 172.32C63.6459 172.32 63.0165 172.555 62.4939 173.024C61.9819 173.493 61.6885 174.144 61.6139 174.976H67.1499ZM74.1918 171.088C74.9491 171.088 75.6104 171.253 76.1758 171.584C76.7518 171.915 77.1784 172.331 77.4558 172.832V171.232H78.9278V180.192C78.9278 180.992 78.7571 181.701 78.4158 182.32C78.0744 182.949 77.5838 183.44 76.9438 183.792C76.3144 184.144 75.5784 184.32 74.7358 184.32C73.5838 184.32 72.6238 184.048 71.8558 183.504C71.0878 182.96 70.6344 182.219 70.4958 181.28H71.9358C72.0958 181.813 72.4264 182.24 72.9278 182.56C73.4291 182.891 74.0318 183.056 74.7358 183.056C75.5358 183.056 76.1864 182.805 76.6878 182.304C77.1998 181.803 77.4558 181.099 77.4558 180.192V178.352C77.1678 178.864 76.7411 179.291 76.1758 179.632C75.6104 179.973 74.9491 180.144 74.1918 180.144C73.4131 180.144 72.7038 179.952 72.0638 179.568C71.4344 179.184 70.9384 178.645 70.5758 177.952C70.2131 177.259 70.0318 176.469 70.0318 175.584C70.0318 174.688 70.2131 173.904 70.5758 173.232C70.9384 172.549 71.4344 172.021 72.0638 171.648C72.7038 171.275 73.4131 171.088 74.1918 171.088ZM77.4558 175.6C77.4558 174.939 77.3224 174.363 77.0558 173.872C76.7891 173.381 76.4264 173.008 75.9678 172.752C75.5198 172.485 75.0238 172.352 74.4798 172.352C73.9358 172.352 73.4398 172.48 72.9918 172.736C72.5438 172.992 72.1864 173.365 71.9198 173.856C71.6531 174.347 71.5198 174.923 71.5198 175.584C71.5198 176.256 71.6531 176.843 71.9198 177.344C72.1864 177.835 72.5438 178.213 72.9918 178.48C73.4398 178.736 73.9358 178.864 74.4798 178.864C75.0238 178.864 75.5198 178.736 75.9678 178.48C76.4264 178.213 76.7891 177.835 77.0558 177.344C77.3224 176.843 77.4558 176.261 77.4558 175.6ZM92.5179 168.848V170.032H89.4779V180H88.0219V170.032H84.9659V168.848H92.5179ZM98.1341 180.144C97.3128 180.144 96.5661 179.957 95.8941 179.584C95.2328 179.211 94.7101 178.683 94.3261 178C93.9528 177.307 93.7661 176.507 93.7661 175.6C93.7661 174.704 93.9581 173.915 94.3421 173.232C94.7368 172.539 95.2701 172.011 95.9421 171.648C96.6141 171.275 97.3661 171.088 98.1981 171.088C99.0301 171.088 99.7821 171.275 100.454 171.648C101.126 172.011 101.654 172.533 102.038 173.216C102.433 173.899 102.63 174.693 102.63 175.6C102.63 176.507 102.427 177.307 102.022 178C101.627 178.683 101.089 179.211 100.406 179.584C99.7235 179.957 98.9661 180.144 98.1341 180.144ZM98.1341 178.864C98.6568 178.864 99.1475 178.741 99.6061 178.496C100.065 178.251 100.433 177.883 100.71 177.392C100.998 176.901 101.142 176.304 101.142 175.6C101.142 174.896 101.003 174.299 100.726 173.808C100.449 173.317 100.086 172.955 99.6381 172.72C99.1901 172.475 98.7048 172.352 98.1821 172.352C97.6488 172.352 97.1581 172.475 96.7101 172.72C96.2728 172.955 95.9208 173.317 95.6541 173.808C95.3875 174.299 95.2541 174.896 95.2541 175.6C95.2541 176.315 95.3821 176.917 95.6381 177.408C95.9048 177.899 96.2568 178.267 96.6941 178.512C97.1315 178.747 97.6115 178.864 98.1341 178.864ZM104.001 175.584C104.001 174.688 104.182 173.904 104.545 173.232C104.907 172.549 105.403 172.021 106.033 171.648C106.673 171.275 107.387 171.088 108.177 171.088C108.859 171.088 109.494 171.248 110.081 171.568C110.667 171.877 111.115 172.288 111.425 172.8V168.16H112.897V180H111.425V178.352C111.137 178.875 110.71 179.307 110.145 179.648C109.579 179.979 108.918 180.144 108.161 180.144C107.382 180.144 106.673 179.952 106.033 179.568C105.403 179.184 104.907 178.645 104.545 177.952C104.182 177.259 104.001 176.469 104.001 175.584ZM111.425 175.6C111.425 174.939 111.291 174.363 111.025 173.872C110.758 173.381 110.395 173.008 109.937 172.752C109.489 172.485 108.993 172.352 108.449 172.352C107.905 172.352 107.409 172.48 106.961 172.736C106.513 172.992 106.155 173.365 105.889 173.856C105.622 174.347 105.489 174.923 105.489 175.584C105.489 176.256 105.622 176.843 105.889 177.344C106.155 177.835 106.513 178.213 106.961 178.48C107.409 178.736 107.905 178.864 108.449 178.864C108.993 178.864 109.489 178.736 109.937 178.48C110.395 178.213 110.758 177.835 111.025 177.344C111.291 176.843 111.425 176.261 111.425 175.6ZM114.813 175.584C114.813 174.688 114.994 173.904 115.357 173.232C115.72 172.549 116.216 172.021 116.845 171.648C117.485 171.275 118.2 171.088 118.989 171.088C119.672 171.088 120.306 171.248 120.893 171.568C121.48 171.877 121.928 172.288 122.237 172.8V168.16H123.709V180H122.237V178.352C121.949 178.875 121.522 179.307 120.957 179.648C120.392 179.979 119.73 180.144 118.973 180.144C118.194 180.144 117.485 179.952 116.845 179.568C116.216 179.184 115.72 178.645 115.357 177.952C114.994 177.259 114.813 176.469 114.813 175.584ZM122.237 175.6C122.237 174.939 122.104 174.363 121.837 173.872C121.57 173.381 121.208 173.008 120.749 172.752C120.301 172.485 119.805 172.352 119.261 172.352C118.717 172.352 118.221 172.48 117.773 172.736C117.325 172.992 116.968 173.365 116.701 173.856C116.434 174.347 116.301 174.923 116.301 175.584C116.301 176.256 116.434 176.843 116.701 177.344C116.968 177.835 117.325 178.213 117.773 178.48C118.221 178.736 118.717 178.864 119.261 178.864C119.805 178.864 120.301 178.736 120.749 178.48C121.208 178.213 121.57 177.835 121.837 177.344C122.104 176.843 122.237 176.261 122.237 175.6Z" fill="#45525B"/>
<path d="M43.144 66.272V68.048H38.584V83H36.4V68.048H31.816V66.272H43.144ZM52.3604 69.608C53.3524 69.608 54.2484 69.824 55.0484 70.256C55.8484 70.672 56.4724 71.304 56.9204 72.152C57.3844 73 57.6164 74.032 57.6164 75.248V83H55.4564V75.56C55.4564 74.248 55.1284 73.248 54.4724 72.56C53.8164 71.856 52.9204 71.504 51.7844 71.504C50.6324 71.504 49.7124 71.864 49.0244 72.584C48.3524 73.304 48.0164 74.352 48.0164 75.728V83H45.8324V65.24H48.0164V71.72C48.4484 71.048 49.0404 70.528 49.7924 70.16C50.5604 69.792 51.4164 69.608 52.3604 69.608ZM60.3679 76.376C60.3679 75.032 60.6399 73.856 61.1839 72.848C61.7279 71.824 62.4719 71.032 63.4159 70.472C64.3759 69.912 65.4399 69.632 66.6079 69.632C67.7599 69.632 68.7599 69.88 69.6079 70.376C70.4559 70.872 71.0879 71.496 71.5039 72.248V69.848H73.7119V83H71.5039V80.552C71.0719 81.32 70.4239 81.96 69.5599 82.472C68.7119 82.968 67.7199 83.216 66.5839 83.216C65.4159 83.216 64.3599 82.928 63.4159 82.352C62.4719 81.776 61.7279 80.968 61.1839 79.928C60.6399 78.888 60.3679 77.704 60.3679 76.376ZM71.5039 76.4C71.5039 75.408 71.3039 74.544 70.9039 73.808C70.5039 73.072 69.9599 72.512 69.2719 72.128C68.5999 71.728 67.8559 71.528 67.0399 71.528C66.2239 71.528 65.4799 71.72 64.8079 72.104C64.1359 72.488 63.5999 73.048 63.1999 73.784C62.7999 74.52 62.5999 75.384 62.5999 76.376C62.5999 77.384 62.7999 78.264 63.1999 79.016C63.5999 79.752 64.1359 80.32 64.8079 80.72C65.4799 81.104 66.2239 81.296 67.0399 81.296C67.8559 81.296 68.5999 81.104 69.2719 80.72C69.9599 80.32 70.5039 79.752 70.9039 79.016C71.3039 78.264 71.5039 77.392 71.5039 76.4ZM83.8107 69.608C85.4107 69.608 86.7067 70.096 87.6987 71.072C88.6907 72.032 89.1867 73.424 89.1867 75.248V83H87.0267V75.56C87.0267 74.248 86.6987 73.248 86.0427 72.56C85.3867 71.856 84.4907 71.504 83.3547 71.504C82.2027 71.504 81.2827 71.864 80.5947 72.584C79.9227 73.304 79.5867 74.352 79.5867 75.728V83H77.4027V69.848H79.5867V71.72C80.0187 71.048 80.6027 70.528 81.3387 70.16C82.0907 69.792 82.9147 69.608 83.8107 69.608ZM100.098 83L94.9383 77.192V83H92.7543V65.24H94.9383V75.68L100.002 69.848H103.05L96.8583 76.4L103.074 83H100.098ZM122.832 69.848L114.912 89.192H112.656L115.248 82.856L109.944 69.848H112.368L116.496 80.504L120.576 69.848H122.832ZM130.764 83.216C129.532 83.216 128.412 82.936 127.404 82.376C126.412 81.816 125.628 81.024 125.052 80C124.492 78.96 124.212 77.76 124.212 76.4C124.212 75.056 124.5 73.872 125.076 72.848C125.668 71.808 126.468 71.016 127.476 70.472C128.484 69.912 129.612 69.632 130.86 69.632C132.108 69.632 133.236 69.912 134.244 70.472C135.252 71.016 136.044 71.8 136.62 72.824C137.212 73.848 137.508 75.04 137.508 76.4C137.508 77.76 137.204 78.96 136.596 80C136.004 81.024 135.196 81.816 134.172 82.376C133.148 82.936 132.012 83.216 130.764 83.216ZM130.764 81.296C131.548 81.296 132.284 81.112 132.972 80.744C133.66 80.376 134.212 79.824 134.628 79.088C135.06 78.352 135.276 77.456 135.276 76.4C135.276 75.344 135.068 74.448 134.652 73.712C134.236 72.976 133.692 72.432 133.02 72.08C132.348 71.712 131.62 71.528 130.836 71.528C130.036 71.528 129.3 71.712 128.628 72.08C127.972 72.432 127.444 72.976 127.044 73.712C126.644 74.448 126.444 75.344 126.444 76.4C126.444 77.472 126.636 78.376 127.02 79.112C127.42 79.848 127.948 80.4 128.604 80.768C129.26 81.12 129.98 81.296 130.764 81.296ZM152.043 69.848V83H149.859V81.056C149.443 81.728 148.859 82.256 148.107 82.64C147.371 83.008 146.555 83.192 145.659 83.192C144.635 83.192 143.715 82.984 142.899 82.568C142.083 82.136 141.435 81.496 140.955 80.648C140.491 79.8 140.259 78.768 140.259 77.552V69.848H142.419V77.264C142.419 78.56 142.747 79.56 143.403 80.264C144.059 80.952 144.955 81.296 146.091 81.296C147.259 81.296 148.179 80.936 148.851 80.216C149.523 79.496 149.859 78.448 149.859 77.072V69.848H152.043ZM167.481 71.648H164.721V83H162.537V71.648H160.833V69.848H162.537V68.912C162.537 67.44 162.913 66.368 163.665 65.696C164.433 65.008 165.657 64.664 167.337 64.664V66.488C166.377 66.488 165.697 66.68 165.297 67.064C164.913 67.432 164.721 68.048 164.721 68.912V69.848H167.481V71.648ZM175.764 83.216C174.532 83.216 173.412 82.936 172.404 82.376C171.412 81.816 170.628 81.024 170.052 80C169.492 78.96 169.212 77.76 169.212 76.4C169.212 75.056 169.5 73.872 170.076 72.848C170.668 71.808 171.468 71.016 172.476 70.472C173.484 69.912 174.612 69.632 175.86 69.632C177.108 69.632 178.236 69.912 179.244 70.472C180.252 71.016 181.044 71.8 181.62 72.824C182.212 73.848 182.508 75.04 182.508 76.4C182.508 77.76 182.204 78.96 181.596 80C181.004 81.024 180.196 81.816 179.172 82.376C178.148 82.936 177.012 83.216 175.764 83.216ZM175.764 81.296C176.548 81.296 177.284 81.112 177.972 80.744C178.66 80.376 179.212 79.824 179.628 79.088C180.06 78.352 180.276 77.456 180.276 76.4C180.276 75.344 180.068 74.448 179.652 73.712C179.236 72.976 178.692 72.432 178.02 72.08C177.348 71.712 176.62 71.528 175.836 71.528C175.036 71.528 174.3 71.712 173.628 72.08C172.972 72.432 172.444 72.976 172.044 73.712C171.644 74.448 171.444 75.344 171.444 76.4C171.444 77.472 171.636 78.376 172.02 79.112C172.42 79.848 172.948 80.4 173.604 80.768C174.26 81.12 174.98 81.296 175.764 81.296ZM187.563 71.984C187.947 71.232 188.491 70.648 189.195 70.232C189.915 69.816 190.787 69.608 191.811 69.608V71.864H191.235C188.787 71.864 187.563 73.192 187.563 75.848V83H185.379V69.848H187.563V71.984ZM206.467 83.216C205.235 83.216 204.115 82.936 203.107 82.376C202.115 81.816 201.331 81.024 200.755 80C200.195 78.96 199.915 77.76 199.915 76.4C199.915 75.056 200.203 73.872 200.779 72.848C201.371 71.808 202.171 71.016 203.179 70.472C204.187 69.912 205.315 69.632 206.563 69.632C207.811 69.632 208.939 69.912 209.947 70.472C210.955 71.016 211.747 71.8 212.323 72.824C212.915 73.848 213.211 75.04 213.211 76.4C213.211 77.76 212.907 78.96 212.299 80C211.707 81.024 210.899 81.816 209.875 82.376C208.851 82.936 207.715 83.216 206.467 83.216ZM206.467 81.296C207.251 81.296 207.987 81.112 208.675 80.744C209.363 80.376 209.915 79.824 210.331 79.088C210.763 78.352 210.979 77.456 210.979 76.4C210.979 75.344 210.771 74.448 210.355 73.712C209.939 72.976 209.395 72.432 208.723 72.08C208.051 71.712 207.323 71.528 206.539 71.528C205.739 71.528 205.003 71.712 204.331 72.08C203.675 72.432 203.147 72.976 202.747 73.712C202.347 74.448 202.147 75.344 202.147 76.4C202.147 77.472 202.339 78.376 202.723 79.112C203.123 79.848 203.651 80.4 204.307 80.768C204.963 81.12 205.683 81.296 206.467 81.296ZM227.746 69.848V83H225.562V81.056C225.146 81.728 224.562 82.256 223.81 82.64C223.074 83.008 222.258 83.192 221.362 83.192C220.338 83.192 219.418 82.984 218.602 82.568C217.786 82.136 217.138 81.496 216.658 80.648C216.194 79.8 215.962 78.768 215.962 77.552V69.848H218.122V77.264C218.122 78.56 218.45 79.56 219.106 80.264C219.762 80.952 220.658 81.296 221.794 81.296C222.962 81.296 223.882 80.936 224.554 80.216C225.226 79.496 225.562 78.448 225.562 77.072V69.848H227.746ZM233.618 71.984C234.002 71.232 234.546 70.648 235.25 70.232C235.97 69.816 236.842 69.608 237.866 69.608V71.864H237.29C234.842 71.864 233.618 73.192 233.618 75.848V83H231.434V69.848H233.618V71.984ZM248.97 72.296C249.418 71.512 250.074 70.872 250.938 70.376C251.802 69.88 252.786 69.632 253.89 69.632C255.074 69.632 256.138 69.912 257.082 70.472C258.026 71.032 258.77 71.824 259.314 72.848C259.858 73.856 260.13 75.032 260.13 76.376C260.13 77.704 259.858 78.888 259.314 79.928C258.77 80.968 258.017 81.776 257.057 82.352C256.114 82.928 255.058 83.216 253.89 83.216C252.754 83.216 251.754 82.968 250.89 82.472C250.042 81.976 249.402 81.344 248.97 80.576V83H246.786V65.24H248.97V72.296ZM257.898 76.376C257.898 75.384 257.698 74.52 257.298 73.784C256.898 73.048 256.354 72.488 255.666 72.104C254.994 71.72 254.25 71.528 253.434 71.528C252.634 71.528 251.89 71.728 251.202 72.128C250.53 72.512 249.986 73.08 249.57 73.832C249.17 74.568 248.97 75.424 248.97 76.4C248.97 77.392 249.17 78.264 249.57 79.016C249.986 79.752 250.53 80.32 251.202 80.72C251.89 81.104 252.634 81.296 253.434 81.296C254.25 81.296 254.994 81.104 255.666 80.72C256.354 80.32 256.898 79.752 257.298 79.016C257.698 78.264 257.898 77.384 257.898 76.376ZM275.004 75.92C275.004 76.336 274.98 76.776 274.932 77.24H264.42C264.5 78.536 264.94 79.552 265.74 80.288C266.556 81.008 267.54 81.368 268.692 81.368C269.636 81.368 270.42 81.152 271.044 80.72C271.684 80.272 272.132 79.68 272.388 78.944H274.74C274.388 80.208 273.684 81.24 272.628 82.04C271.572 82.824 270.26 83.216 268.692 83.216C267.444 83.216 266.324 82.936 265.332 82.376C264.356 81.816 263.588 81.024 263.028 80C262.468 78.96 262.188 77.76 262.188 76.4C262.188 75.04 262.46 73.848 263.004 72.824C263.548 71.8 264.308 71.016 265.284 70.472C266.276 69.912 267.412 69.632 268.692 69.632C269.94 69.632 271.044 69.904 272.004 70.448C272.964 70.992 273.7 71.744 274.212 72.704C274.74 73.648 275.004 74.72 275.004 75.92ZM272.748 75.464C272.748 74.632 272.564 73.92 272.196 73.328C271.828 72.72 271.324 72.264 270.684 71.96C270.06 71.64 269.364 71.48 268.596 71.48C267.492 71.48 266.548 71.832 265.764 72.536C264.996 73.24 264.556 74.216 264.444 75.464H272.748ZM277.071 76.376C277.071 75.032 277.343 73.856 277.887 72.848C278.431 71.824 279.175 71.032 280.119 70.472C281.079 69.912 282.143 69.632 283.311 69.632C284.463 69.632 285.463 69.88 286.311 70.376C287.159 70.872 287.791 71.496 288.207 72.248V69.848H290.415V83H288.207V80.552C287.775 81.32 287.127 81.96 286.263 82.472C285.415 82.968 284.423 83.216 283.287 83.216C282.119 83.216 281.063 82.928 280.119 82.352C279.175 81.776 278.431 80.968 277.887 79.928C277.343 78.888 277.071 77.704 277.071 76.376ZM288.207 76.4C288.207 75.408 288.007 74.544 287.607 73.808C287.207 73.072 286.663 72.512 285.975 72.128C285.303 71.728 284.559 71.528 283.743 71.528C282.927 71.528 282.183 71.72 281.511 72.104C280.839 72.488 280.303 73.048 279.903 73.784C279.503 74.52 279.303 75.384 279.303 76.376C279.303 77.384 279.503 78.264 279.903 79.016C280.303 79.752 280.839 80.32 281.511 80.72C282.183 81.104 282.927 81.296 283.743 81.296C284.559 81.296 285.303 81.104 285.975 80.72C286.663 80.32 287.207 79.752 287.607 79.016C288.007 78.264 288.207 77.392 288.207 76.4ZM305.77 69.848V83H303.586V81.056C303.17 81.728 302.586 82.256 301.834 82.64C301.098 83.008 300.282 83.192 299.386 83.192C298.362 83.192 297.442 82.984 296.626 82.568C295.81 82.136 295.162 81.496 294.682 80.648C294.218 79.8 293.986 78.768 293.986 77.552V69.848H296.146V77.264C296.146 78.56 296.474 79.56 297.13 80.264C297.786 80.952 298.682 81.296 299.818 81.296C300.986 81.296 301.906 80.936 302.578 80.216C303.25 79.496 303.586 78.448 303.586 77.072V69.848H305.77ZM312.121 71.648V79.4C312.121 80.04 312.257 80.496 312.529 80.768C312.801 81.024 313.273 81.152 313.945 81.152H315.553V83H313.585C312.369 83 311.457 82.72 310.849 82.16C310.241 81.6 309.937 80.68 309.937 79.4V71.648H308.233V69.848H309.937V66.536H312.121V69.848H315.553V71.648H312.121ZM319.328 67.712C318.912 67.712 318.56 67.568 318.272 67.28C317.984 66.992 317.84 66.64 317.84 66.224C317.84 65.808 317.984 65.456 318.272 65.168C318.56 64.88 318.912 64.736 319.328 64.736C319.728 64.736 320.064 64.88 320.336 65.168C320.624 65.456 320.768 65.808 320.768 66.224C320.768 66.64 320.624 66.992 320.336 67.28C320.064 67.568 319.728 67.712 319.328 67.712ZM320.384 69.848V83H318.2V69.848H320.384ZM329.458 71.648H326.698V83H324.514V71.648H322.81V69.848H324.514V68.912C324.514 67.44 324.89 66.368 325.642 65.696C326.41 65.008 327.634 64.664 329.314 64.664V66.488C328.354 66.488 327.674 66.68 327.274 67.064C326.89 67.432 326.698 68.048 326.698 68.912V69.848H329.458V71.648ZM343.668 69.848V83H341.484V81.056C341.068 81.728 340.484 82.256 339.732 82.64C338.996 83.008 338.18 83.192 337.284 83.192C336.26 83.192 335.34 82.984 334.524 82.568C333.708 82.136 333.06 81.496 332.58 80.648C332.116 79.8 331.884 78.768 331.884 77.552V69.848H334.044V77.264C334.044 78.56 334.372 79.56 335.028 80.264C335.684 80.952 336.58 81.296 337.716 81.296C338.884 81.296 339.804 80.936 340.476 80.216C341.148 79.496 341.484 78.448 341.484 77.072V69.848H343.668ZM349.54 65.24V83H347.356V65.24H349.54ZM366.189 69.608C367.181 69.608 368.077 69.824 368.877 70.256C369.677 70.672 370.301 71.304 370.749 72.152C371.213 73 371.445 74.032 371.445 75.248V83H369.285V75.56C369.285 74.248 368.957 73.248 368.301 72.56C367.645 71.856 366.749 71.504 365.613 71.504C364.461 71.504 363.541 71.864 362.853 72.584C362.181 73.304 361.845 74.352 361.845 75.728V83H359.661V65.24H361.845V71.72C362.277 71.048 362.869 70.528 363.621 70.16C364.389 69.792 365.245 69.608 366.189 69.608ZM380.748 83.216C379.516 83.216 378.396 82.936 377.388 82.376C376.396 81.816 375.612 81.024 375.036 80C374.476 78.96 374.196 77.76 374.196 76.4C374.196 75.056 374.484 73.872 375.06 72.848C375.652 71.808 376.452 71.016 377.46 70.472C378.468 69.912 379.596 69.632 380.844 69.632C382.092 69.632 383.22 69.912 384.228 70.472C385.236 71.016 386.028 71.8 386.604 72.824C387.196 73.848 387.492 75.04 387.492 76.4C387.492 77.76 387.188 78.96 386.58 80C385.988 81.024 385.18 81.816 384.156 82.376C383.132 82.936 381.996 83.216 380.748 83.216ZM380.748 81.296C381.532 81.296 382.268 81.112 382.956 80.744C383.644 80.376 384.196 79.824 384.612 79.088C385.044 78.352 385.26 77.456 385.26 76.4C385.26 75.344 385.052 74.448 384.636 73.712C384.22 72.976 383.676 72.432 383.004 72.08C382.332 71.712 381.604 71.528 380.82 71.528C380.02 71.528 379.284 71.712 378.612 72.08C377.956 72.432 377.428 72.976 377.028 73.712C376.628 74.448 376.428 75.344 376.428 76.4C376.428 77.472 376.62 78.376 377.004 79.112C377.404 79.848 377.932 80.4 378.588 80.768C379.244 81.12 379.964 81.296 380.748 81.296ZM406.18 69.608C407.204 69.608 408.116 69.824 408.916 70.256C409.716 70.672 410.348 71.304 410.812 72.152C411.276 73 411.508 74.032 411.508 75.248V83H409.348V75.56C409.348 74.248 409.02 73.248 408.364 72.56C407.724 71.856 406.852 71.504 405.748 71.504C404.612 71.504 403.708 71.872 403.036 72.608C402.364 73.328 402.028 74.376 402.028 75.752V83H399.868V75.56C399.868 74.248 399.54 73.248 398.884 72.56C398.244 71.856 397.372 71.504 396.268 71.504C395.132 71.504 394.228 71.872 393.556 72.608C392.884 73.328 392.548 74.376 392.548 75.752V83H390.364V69.848H392.548V71.744C392.98 71.056 393.556 70.528 394.276 70.16C395.012 69.792 395.82 69.608 396.7 69.608C397.804 69.608 398.78 69.856 399.628 70.352C400.476 70.848 401.108 71.576 401.524 72.536C401.892 71.608 402.5 70.888 403.348 70.376C404.196 69.864 405.14 69.608 406.18 69.608ZM427.09 75.92C427.09 76.336 427.066 76.776 427.018 77.24H416.506C416.586 78.536 417.026 79.552 417.826 80.288C418.642 81.008 419.626 81.368 420.778 81.368C421.722 81.368 422.506 81.152 423.13 80.72C423.77 80.272 424.218 79.68 424.474 78.944H426.826C426.474 80.208 425.77 81.24 424.714 82.04C423.658 82.824 422.346 83.216 420.778 83.216C419.53 83.216 418.41 82.936 417.418 82.376C416.442 81.816 415.674 81.024 415.114 80C414.554 78.96 414.274 77.76 414.274 76.4C414.274 75.04 414.546 73.848 415.09 72.824C415.634 71.8 416.394 71.016 417.37 70.472C418.362 69.912 419.498 69.632 420.778 69.632C422.026 69.632 423.13 69.904 424.09 70.448C425.05 70.992 425.786 71.744 426.298 72.704C426.826 73.648 427.09 74.72 427.09 75.92ZM424.834 75.464C424.834 74.632 424.65 73.92 424.282 73.328C423.914 72.72 423.41 72.264 422.77 71.96C422.146 71.64 421.45 71.48 420.682 71.48C419.578 71.48 418.634 71.832 417.85 72.536C417.082 73.24 416.642 74.216 416.53 75.464H424.834ZM430.669 83.144C430.253 83.144 429.901 83 429.613 82.712C429.325 82.424 429.181 82.072 429.181 81.656C429.181 81.24 429.325 80.888 429.613 80.6C429.901 80.312 430.253 80.168 430.669 80.168C431.069 80.168 431.405 80.312 431.677 80.6C431.965 80.888 432.109 81.24 432.109 81.656C432.109 82.072 431.965 82.424 431.677 82.712C431.405 83 431.069 83.144 430.669 83.144Z" fill="#333333"/>
<rect x="29" y="165.484" width="2" height="24" fill="#FF8A63"/>
<path d="M33.52 114.89H37.18V116H32.155V105.545H33.52V114.89ZM42.2146 116.135C41.4446 116.135 40.7446 115.96 40.1146 115.61C39.4946 115.26 39.0046 114.765 38.6446 114.125C38.2946 113.475 38.1196 112.725 38.1196 111.875C38.1196 111.035 38.2996 110.295 38.6596 109.655C39.0296 109.005 39.5296 108.51 40.1596 108.17C40.7896 107.82 41.4946 107.645 42.2746 107.645C43.0546 107.645 43.7596 107.82 44.3896 108.17C45.0196 108.51 45.5146 109 45.8746 109.64C46.2446 110.28 46.4296 111.025 46.4296 111.875C46.4296 112.725 46.2396 113.475 45.8596 114.125C45.4896 114.765 44.9846 115.26 44.3446 115.61C43.7046 115.96 42.9946 116.135 42.2146 116.135ZM42.2146 114.935C42.7046 114.935 43.1646 114.82 43.5946 114.59C44.0246 114.36 44.3696 114.015 44.6296 113.555C44.8996 113.095 45.0346 112.535 45.0346 111.875C45.0346 111.215 44.9046 110.655 44.6446 110.195C44.3846 109.735 44.0446 109.395 43.6246 109.175C43.2046 108.945 42.7496 108.83 42.2596 108.83C41.7596 108.83 41.2996 108.945 40.8796 109.175C40.4696 109.395 40.1396 109.735 39.8896 110.195C39.6396 110.655 39.5146 111.215 39.5146 111.875C39.5146 112.545 39.6346 113.11 39.8746 113.57C40.1246 114.03 40.4546 114.375 40.8646 114.605C41.2746 114.825 41.7246 114.935 42.2146 114.935ZM49.5893 109.115C49.8293 108.645 50.1693 108.28 50.6093 108.02C51.0593 107.76 51.6043 107.63 52.2443 107.63V109.04H51.8843C50.3543 109.04 49.5893 109.87 49.5893 111.53V116H48.2243V107.78H49.5893V109.115ZM61.32 111.575C61.32 111.835 61.305 112.11 61.275 112.4H54.705C54.755 113.21 55.03 113.845 55.53 114.305C56.04 114.755 56.655 114.98 57.375 114.98C57.965 114.98 58.455 114.845 58.845 114.575C59.245 114.295 59.525 113.925 59.685 113.465H61.155C60.935 114.255 60.495 114.9 59.835 115.4C59.175 115.89 58.355 116.135 57.375 116.135C56.595 116.135 55.895 115.96 55.275 115.61C54.665 115.26 54.185 114.765 53.835 114.125C53.485 113.475 53.31 112.725 53.31 111.875C53.31 111.025 53.48 110.28 53.82 109.64C54.16 109 54.635 108.51 55.245 108.17C55.865 107.82 56.575 107.645 57.375 107.645C58.155 107.645 58.845 107.815 59.445 108.155C60.045 108.495 60.505 108.965 60.825 109.565C61.155 110.155 61.32 110.825 61.32 111.575ZM59.91 111.29C59.91 110.77 59.795 110.325 59.565 109.955C59.335 109.575 59.02 109.29 58.62 109.1C58.23 108.9 57.795 108.8 57.315 108.8C56.625 108.8 56.035 109.02 55.545 109.46C55.065 109.9 54.79 110.51 54.72 111.29H59.91ZM73.0068 107.63C73.6468 107.63 74.2168 107.765 74.7168 108.035C75.2168 108.295 75.6118 108.69 75.9018 109.22C76.1918 109.75 76.3368 110.395 76.3368 111.155V116H74.9868V111.35C74.9868 110.53 74.7818 109.905 74.3718 109.475C73.9718 109.035 73.4268 108.815 72.7368 108.815C72.0268 108.815 71.4618 109.045 71.0418 109.505C70.6218 109.955 70.4118 110.61 70.4118 111.47V116H69.0618V111.35C69.0618 110.53 68.8568 109.905 68.4468 109.475C68.0468 109.035 67.5018 108.815 66.8118 108.815C66.1018 108.815 65.5368 109.045 65.1168 109.505C64.6968 109.955 64.4868 110.61 64.4868 111.47V116H63.1218V107.78H64.4868V108.965C64.7568 108.535 65.1168 108.205 65.5668 107.975C66.0268 107.745 66.5318 107.63 67.0818 107.63C67.7718 107.63 68.3818 107.785 68.9118 108.095C69.4418 108.405 69.8368 108.86 70.0968 109.46C70.3268 108.88 70.7068 108.43 71.2368 108.11C71.7668 107.79 72.3568 107.63 73.0068 107.63ZM83.2799 106.445C83.0199 106.445 82.7999 106.355 82.6199 106.175C82.4399 105.995 82.3499 105.775 82.3499 105.515C82.3499 105.255 82.4399 105.035 82.6199 104.855C82.7999 104.675 83.0199 104.585 83.2799 104.585C83.5299 104.585 83.7399 104.675 83.9099 104.855C84.0899 105.035 84.1799 105.255 84.1799 105.515C84.1799 105.775 84.0899 105.995 83.9099 106.175C83.7399 106.355 83.5299 106.445 83.2799 106.445ZM83.9399 107.78V116H82.5749V107.78H83.9399ZM87.6313 109.295C87.9013 108.825 88.3013 108.435 88.8313 108.125C89.3713 107.805 89.9963 107.645 90.7063 107.645C91.4363 107.645 92.0963 107.82 92.6863 108.17C93.2863 108.52 93.7563 109.015 94.0963 109.655C94.4363 110.285 94.6063 111.02 94.6063 111.86C94.6063 112.69 94.4363 113.43 94.0963 114.08C93.7563 114.73 93.2863 115.235 92.6863 115.595C92.0963 115.955 91.4363 116.135 90.7063 116.135C90.0063 116.135 89.3863 115.98 88.8463 115.67C88.3163 115.35 87.9113 114.955 87.6313 114.485V119.9H86.2663V107.78H87.6313V109.295ZM93.2113 111.86C93.2113 111.24 93.0863 110.7 92.8363 110.24C92.5863 109.78 92.2463 109.43 91.8163 109.19C91.3963 108.95 90.9313 108.83 90.4213 108.83C89.9213 108.83 89.4563 108.955 89.0263 109.205C88.6063 109.445 88.2663 109.8 88.0063 110.27C87.7563 110.73 87.6313 111.265 87.6313 111.875C87.6313 112.495 87.7563 113.04 88.0063 113.51C88.2663 113.97 88.6063 114.325 89.0263 114.575C89.4563 114.815 89.9213 114.935 90.4213 114.935C90.9313 114.935 91.3963 114.815 91.8163 114.575C92.2463 114.325 92.5863 113.97 92.8363 113.51C93.0863 113.04 93.2113 112.49 93.2113 111.86ZM99.313 116.135C98.683 116.135 98.118 116.03 97.618 115.82C97.118 115.6 96.723 115.3 96.433 114.92C96.143 114.53 95.983 114.085 95.953 113.585H97.363C97.403 113.995 97.593 114.33 97.933 114.59C98.283 114.85 98.738 114.98 99.298 114.98C99.818 114.98 100.228 114.865 100.528 114.635C100.828 114.405 100.978 114.115 100.978 113.765C100.978 113.405 100.818 113.14 100.498 112.97C100.178 112.79 99.683 112.615 99.013 112.445C98.403 112.285 97.903 112.125 97.513 111.965C97.133 111.795 96.803 111.55 96.523 111.23C96.253 110.9 96.118 110.47 96.118 109.94C96.118 109.52 96.243 109.135 96.493 108.785C96.743 108.435 97.098 108.16 97.558 107.96C98.018 107.75 98.543 107.645 99.133 107.645C100.043 107.645 100.778 107.875 101.338 108.335C101.898 108.795 102.198 109.425 102.238 110.225H100.873C100.843 109.795 100.668 109.45 100.348 109.19C100.038 108.93 99.618 108.8 99.088 108.8C98.598 108.8 98.208 108.905 97.918 109.115C97.628 109.325 97.483 109.6 97.483 109.94C97.483 110.21 97.568 110.435 97.738 110.615C97.918 110.785 98.138 110.925 98.398 111.035C98.668 111.135 99.038 111.25 99.508 111.38C100.098 111.54 100.578 111.7 100.948 111.86C101.318 112.01 101.633 112.24 101.893 112.55C102.163 112.86 102.303 113.265 102.313 113.765C102.313 114.215 102.188 114.62 101.938 114.98C101.688 115.34 101.333 115.625 100.873 115.835C100.423 116.035 99.903 116.135 99.313 116.135ZM111.53 107.78V116H110.165V114.785C109.905 115.205 109.54 115.535 109.07 115.775C108.61 116.005 108.1 116.12 107.54 116.12C106.9 116.12 106.325 115.99 105.815 115.73C105.305 115.46 104.9 115.06 104.6 114.53C104.31 114 104.165 113.355 104.165 112.595V107.78H105.515V112.415C105.515 113.225 105.72 113.85 106.13 114.29C106.54 114.72 107.1 114.935 107.81 114.935C108.54 114.935 109.115 114.71 109.535 114.26C109.955 113.81 110.165 113.155 110.165 112.295V107.78H111.53ZM123.72 107.63C124.36 107.63 124.93 107.765 125.43 108.035C125.93 108.295 126.325 108.69 126.615 109.22C126.905 109.75 127.05 110.395 127.05 111.155V116H125.7V111.35C125.7 110.53 125.495 109.905 125.085 109.475C124.685 109.035 124.14 108.815 123.45 108.815C122.74 108.815 122.175 109.045 121.755 109.505C121.335 109.955 121.125 110.61 121.125 111.47V116H119.775V111.35C119.775 110.53 119.57 109.905 119.16 109.475C118.76 109.035 118.215 108.815 117.525 108.815C116.815 108.815 116.25 109.045 115.83 109.505C115.41 109.955 115.2 110.61 115.2 111.47V116H113.835V107.78H115.2V108.965C115.47 108.535 115.83 108.205 116.28 107.975C116.74 107.745 117.245 107.63 117.795 107.63C118.485 107.63 119.095 107.785 119.625 108.095C120.155 108.405 120.55 108.86 120.81 109.46C121.04 108.88 121.42 108.43 121.95 108.11C122.48 107.79 123.07 107.63 123.72 107.63ZM132.778 111.86C132.778 111.02 132.948 110.285 133.288 109.655C133.628 109.015 134.093 108.52 134.683 108.17C135.283 107.82 135.953 107.645 136.693 107.645C137.333 107.645 137.928 107.795 138.478 108.095C139.028 108.385 139.448 108.77 139.738 109.25V104.9H141.118V116H139.738V114.455C139.468 114.945 139.068 115.35 138.538 115.67C138.008 115.98 137.388 116.135 136.678 116.135C135.948 116.135 135.283 115.955 134.683 115.595C134.093 115.235 133.628 114.73 133.288 114.08C132.948 113.43 132.778 112.69 132.778 111.86ZM139.738 111.875C139.738 111.255 139.613 110.715 139.363 110.255C139.113 109.795 138.773 109.445 138.343 109.205C137.923 108.955 137.458 108.83 136.948 108.83C136.438 108.83 135.973 108.95 135.553 109.19C135.133 109.43 134.798 109.78 134.548 110.24C134.298 110.7 134.173 111.24 134.173 111.86C134.173 112.49 134.298 113.04 134.548 113.51C134.798 113.97 135.133 114.325 135.553 114.575C135.973 114.815 136.438 114.935 136.948 114.935C137.458 114.935 137.923 114.815 138.343 114.575C138.773 114.325 139.113 113.97 139.363 113.51C139.613 113.04 139.738 112.495 139.738 111.875ZM147.01 116.135C146.24 116.135 145.54 115.96 144.91 115.61C144.29 115.26 143.8 114.765 143.44 114.125C143.09 113.475 142.915 112.725 142.915 111.875C142.915 111.035 143.095 110.295 143.455 109.655C143.825 109.005 144.325 108.51 144.955 108.17C145.585 107.82 146.29 107.645 147.07 107.645C147.85 107.645 148.555 107.82 149.185 108.17C149.815 108.51 150.31 109 150.67 109.64C151.04 110.28 151.225 111.025 151.225 111.875C151.225 112.725 151.035 113.475 150.655 114.125C150.285 114.765 149.78 115.26 149.14 115.61C148.5 115.96 147.79 116.135 147.01 116.135ZM147.01 114.935C147.5 114.935 147.96 114.82 148.39 114.59C148.82 114.36 149.165 114.015 149.425 113.555C149.695 113.095 149.83 112.535 149.83 111.875C149.83 111.215 149.7 110.655 149.44 110.195C149.18 109.735 148.84 109.395 148.42 109.175C148 108.945 147.545 108.83 147.055 108.83C146.555 108.83 146.095 108.945 145.675 109.175C145.265 109.395 144.935 109.735 144.685 110.195C144.435 110.655 144.31 111.215 144.31 111.875C144.31 112.545 144.43 113.11 144.67 113.57C144.92 114.03 145.25 114.375 145.66 114.605C146.07 114.825 146.52 114.935 147.01 114.935ZM154.384 104.9V116H153.019V104.9H154.384ZM160.296 116.135C159.526 116.135 158.826 115.96 158.196 115.61C157.576 115.26 157.086 114.765 156.726 114.125C156.376 113.475 156.201 112.725 156.201 111.875C156.201 111.035 156.381 110.295 156.741 109.655C157.111 109.005 157.611 108.51 158.241 108.17C158.871 107.82 159.576 107.645 160.356 107.645C161.136 107.645 161.841 107.82 162.471 108.17C163.101 108.51 163.596 109 163.956 109.64C164.326 110.28 164.511 111.025 164.511 111.875C164.511 112.725 164.321 113.475 163.941 114.125C163.571 114.765 163.066 115.26 162.426 115.61C161.786 115.96 161.076 116.135 160.296 116.135ZM160.296 114.935C160.786 114.935 161.246 114.82 161.676 114.59C162.106 114.36 162.451 114.015 162.711 113.555C162.981 113.095 163.116 112.535 163.116 111.875C163.116 111.215 162.986 110.655 162.726 110.195C162.466 109.735 162.126 109.395 161.706 109.175C161.286 108.945 160.831 108.83 160.341 108.83C159.841 108.83 159.381 108.945 158.961 109.175C158.551 109.395 158.221 109.735 157.971 110.195C157.721 110.655 157.596 111.215 157.596 111.875C157.596 112.545 157.716 113.11 157.956 113.57C158.206 114.03 158.536 114.375 158.946 114.605C159.356 114.825 159.806 114.935 160.296 114.935ZM167.67 109.115C167.91 108.645 168.25 108.28 168.69 108.02C169.14 107.76 169.685 107.63 170.325 107.63V109.04H169.965C168.435 109.04 167.67 109.87 167.67 111.53V116H166.305V107.78H167.67V109.115ZM178.81 116.135C178.18 116.135 177.615 116.03 177.115 115.82C176.615 115.6 176.22 115.3 175.93 114.92C175.64 114.53 175.48 114.085 175.45 113.585H176.86C176.9 113.995 177.09 114.33 177.43 114.59C177.78 114.85 178.235 114.98 178.795 114.98C179.315 114.98 179.725 114.865 180.025 114.635C180.325 114.405 180.475 114.115 180.475 113.765C180.475 113.405 180.315 113.14 179.995 112.97C179.675 112.79 179.18 112.615 178.51 112.445C177.9 112.285 177.4 112.125 177.01 111.965C176.63 111.795 176.3 111.55 176.02 111.23C175.75 110.9 175.615 110.47 175.615 109.94C175.615 109.52 175.74 109.135 175.99 108.785C176.24 108.435 176.595 108.16 177.055 107.96C177.515 107.75 178.04 107.645 178.63 107.645C179.54 107.645 180.275 107.875 180.835 108.335C181.395 108.795 181.695 109.425 181.735 110.225H180.37C180.34 109.795 180.165 109.45 179.845 109.19C179.535 108.93 179.115 108.8 178.585 108.8C178.095 108.8 177.705 108.905 177.415 109.115C177.125 109.325 176.98 109.6 176.98 109.94C176.98 110.21 177.065 110.435 177.235 110.615C177.415 110.785 177.635 110.925 177.895 111.035C178.165 111.135 178.535 111.25 179.005 111.38C179.595 111.54 180.075 111.7 180.445 111.86C180.815 112.01 181.13 112.24 181.39 112.55C181.66 112.86 181.8 113.265 181.81 113.765C181.81 114.215 181.685 114.62 181.435 114.98C181.185 115.34 180.83 115.625 180.37 115.835C179.92 116.035 179.4 116.135 178.81 116.135ZM184.442 106.445C184.182 106.445 183.962 106.355 183.782 106.175C183.602 105.995 183.512 105.775 183.512 105.515C183.512 105.255 183.602 105.035 183.782 104.855C183.962 104.675 184.182 104.585 184.442 104.585C184.692 104.585 184.902 104.675 185.072 104.855C185.252 105.035 185.342 105.255 185.342 105.515C185.342 105.775 185.252 105.995 185.072 106.175C184.902 106.355 184.692 106.445 184.442 106.445ZM185.102 107.78V116H183.737V107.78H185.102ZM189.093 108.905V113.75C189.093 114.15 189.178 114.435 189.348 114.605C189.518 114.765 189.813 114.845 190.233 114.845H191.238V116H190.008C189.248 116 188.678 115.825 188.298 115.475C187.918 115.125 187.728 114.55 187.728 113.75V108.905H186.663V107.78H187.728V105.71H189.093V107.78H191.238V108.905H189.093ZM196.381 111.86C196.381 111.02 196.551 110.285 196.891 109.655C197.231 109.015 197.696 108.52 198.286 108.17C198.886 107.82 199.551 107.645 200.281 107.645C201.001 107.645 201.626 107.8 202.156 108.11C202.686 108.42 203.081 108.81 203.341 109.28V107.78H204.721V116H203.341V114.47C203.071 114.95 202.666 115.35 202.126 115.67C201.596 115.98 200.976 116.135 200.266 116.135C199.536 116.135 198.876 115.955 198.286 115.595C197.696 115.235 197.231 114.73 196.891 114.08C196.551 113.43 196.381 112.69 196.381 111.86ZM203.341 111.875C203.341 111.255 203.216 110.715 202.966 110.255C202.716 109.795 202.376 109.445 201.946 109.205C201.526 108.955 201.061 108.83 200.551 108.83C200.041 108.83 199.576 108.95 199.156 109.19C198.736 109.43 198.401 109.78 198.151 110.24C197.901 110.7 197.776 111.24 197.776 111.86C197.776 112.49 197.901 113.04 198.151 113.51C198.401 113.97 198.736 114.325 199.156 114.575C199.576 114.815 200.041 114.935 200.551 114.935C201.061 114.935 201.526 114.815 201.946 114.575C202.376 114.325 202.716 113.97 202.966 113.51C203.216 113.04 203.341 112.495 203.341 111.875ZM216.913 107.63C217.553 107.63 218.123 107.765 218.623 108.035C219.123 108.295 219.518 108.69 219.808 109.22C220.098 109.75 220.243 110.395 220.243 111.155V116H218.893V111.35C218.893 110.53 218.688 109.905 218.278 109.475C217.878 109.035 217.333 108.815 216.643 108.815C215.933 108.815 215.368 109.045 214.948 109.505C214.528 109.955 214.318 110.61 214.318 111.47V116H212.968V111.35C212.968 110.53 212.763 109.905 212.353 109.475C211.953 109.035 211.408 108.815 210.718 108.815C210.008 108.815 209.443 109.045 209.023 109.505C208.603 109.955 208.393 110.61 208.393 111.47V116H207.028V107.78H208.393V108.965C208.663 108.535 209.023 108.205 209.473 107.975C209.933 107.745 210.438 107.63 210.988 107.63C211.678 107.63 212.288 107.785 212.818 108.095C213.348 108.405 213.743 108.86 214.003 109.46C214.233 108.88 214.613 108.43 215.143 108.11C215.673 107.79 216.263 107.63 216.913 107.63ZM229.982 111.575C229.982 111.835 229.967 112.11 229.937 112.4H223.367C223.417 113.21 223.692 113.845 224.192 114.305C224.702 114.755 225.317 114.98 226.037 114.98C226.627 114.98 227.117 114.845 227.507 114.575C227.907 114.295 228.187 113.925 228.347 113.465H229.817C229.597 114.255 229.157 114.9 228.497 115.4C227.837 115.89 227.017 116.135 226.037 116.135C225.257 116.135 224.557 115.96 223.937 115.61C223.327 115.26 222.847 114.765 222.497 114.125C222.147 113.475 221.972 112.725 221.972 111.875C221.972 111.025 222.142 110.28 222.482 109.64C222.822 109 223.297 108.51 223.907 108.17C224.527 107.82 225.237 107.645 226.037 107.645C226.817 107.645 227.507 107.815 228.107 108.155C228.707 108.495 229.167 108.965 229.487 109.565C229.817 110.155 229.982 110.825 229.982 111.575ZM228.572 111.29C228.572 110.77 228.457 110.325 228.227 109.955C227.997 109.575 227.682 109.29 227.282 109.1C226.892 108.9 226.457 108.8 225.977 108.8C225.287 108.8 224.697 109.02 224.207 109.46C223.727 109.9 223.452 110.51 223.382 111.29H228.572ZM233.449 108.905V113.75C233.449 114.15 233.534 114.435 233.704 114.605C233.874 114.765 234.169 114.845 234.589 114.845H235.594V116H234.364C233.604 116 233.034 115.825 232.654 115.475C232.274 115.125 232.084 114.55 232.084 113.75V108.905H231.019V107.78H232.084V105.71H233.449V107.78H235.594V108.905H233.449ZM238.658 114.11L236.978 118.145H236.063L237.158 114.11H238.658ZM243.71 111.875C243.71 111.025 243.88 110.285 244.22 109.655C244.56 109.015 245.03 108.52 245.63 108.17C246.24 107.82 246.935 107.645 247.715 107.645C248.725 107.645 249.555 107.89 250.205 108.38C250.865 108.87 251.3 109.55 251.51 110.42H250.04C249.9 109.92 249.625 109.525 249.215 109.235C248.815 108.945 248.315 108.8 247.715 108.8C246.935 108.8 246.305 109.07 245.825 109.61C245.345 110.14 245.105 110.895 245.105 111.875C245.105 112.865 245.345 113.63 245.825 114.17C246.305 114.71 246.935 114.98 247.715 114.98C248.315 114.98 248.815 114.84 249.215 114.56C249.615 114.28 249.89 113.88 250.04 113.36H251.51C251.29 114.2 250.85 114.875 250.19 115.385C249.53 115.885 248.705 116.135 247.715 116.135C246.935 116.135 246.24 115.96 245.63 115.61C245.03 115.26 244.56 114.765 244.22 114.125C243.88 113.485 243.71 112.735 243.71 111.875ZM256.917 116.135C256.147 116.135 255.447 115.96 254.817 115.61C254.197 115.26 253.707 114.765 253.347 114.125C252.997 113.475 252.822 112.725 252.822 111.875C252.822 111.035 253.002 110.295 253.362 109.655C253.732 109.005 254.232 108.51 254.862 108.17C255.492 107.82 256.197 107.645 256.977 107.645C257.757 107.645 258.462 107.82 259.092 108.17C259.722 108.51 260.217 109 260.577 109.64C260.947 110.28 261.132 111.025 261.132 111.875C261.132 112.725 260.942 113.475 260.562 114.125C260.192 114.765 259.687 115.26 259.047 115.61C258.407 115.96 257.697 116.135 256.917 116.135ZM256.917 114.935C257.407 114.935 257.867 114.82 258.297 114.59C258.727 114.36 259.072 114.015 259.332 113.555C259.602 113.095 259.737 112.535 259.737 111.875C259.737 111.215 259.607 110.655 259.347 110.195C259.087 109.735 258.747 109.395 258.327 109.175C257.907 108.945 257.452 108.83 256.962 108.83C256.462 108.83 256.002 108.945 255.582 109.175C255.172 109.395 254.842 109.735 254.592 110.195C254.342 110.655 254.217 111.215 254.217 111.875C254.217 112.545 254.337 113.11 254.577 113.57C254.827 114.03 255.157 114.375 255.567 114.605C255.977 114.825 256.427 114.935 256.917 114.935ZM266.931 107.63C267.931 107.63 268.741 107.935 269.361 108.545C269.981 109.145 270.291 110.015 270.291 111.155V116H268.941V111.35C268.941 110.53 268.736 109.905 268.326 109.475C267.916 109.035 267.356 108.815 266.646 108.815C265.926 108.815 265.351 109.04 264.921 109.49C264.501 109.94 264.291 110.595 264.291 111.455V116H262.926V107.78H264.291V108.95C264.561 108.53 264.926 108.205 265.386 107.975C265.856 107.745 266.371 107.63 266.931 107.63ZM275.431 116.135C274.801 116.135 274.236 116.03 273.736 115.82C273.236 115.6 272.841 115.3 272.551 114.92C272.261 114.53 272.101 114.085 272.071 113.585H273.481C273.521 113.995 273.711 114.33 274.051 114.59C274.401 114.85 274.856 114.98 275.416 114.98C275.936 114.98 276.346 114.865 276.646 114.635C276.946 114.405 277.096 114.115 277.096 113.765C277.096 113.405 276.936 113.14 276.616 112.97C276.296 112.79 275.801 112.615 275.131 112.445C274.521 112.285 274.021 112.125 273.631 111.965C273.251 111.795 272.921 111.55 272.641 111.23C272.371 110.9 272.236 110.47 272.236 109.94C272.236 109.52 272.361 109.135 272.611 108.785C272.861 108.435 273.216 108.16 273.676 107.96C274.136 107.75 274.661 107.645 275.251 107.645C276.161 107.645 276.896 107.875 277.456 108.335C278.016 108.795 278.316 109.425 278.356 110.225H276.991C276.961 109.795 276.786 109.45 276.466 109.19C276.156 108.93 275.736 108.8 275.206 108.8C274.716 108.8 274.326 108.905 274.036 109.115C273.746 109.325 273.601 109.6 273.601 109.94C273.601 110.21 273.686 110.435 273.856 110.615C274.036 110.785 274.256 110.925 274.516 111.035C274.786 111.135 275.156 111.25 275.626 111.38C276.216 111.54 276.696 111.7 277.066 111.86C277.436 112.01 277.751 112.24 278.011 112.55C278.281 112.86 278.421 113.265 278.431 113.765C278.431 114.215 278.306 114.62 278.056 114.98C277.806 115.34 277.451 115.625 276.991 115.835C276.541 116.035 276.021 116.135 275.431 116.135ZM287.858 111.575C287.858 111.835 287.843 112.11 287.813 112.4H281.243C281.293 113.21 281.568 113.845 282.068 114.305C282.578 114.755 283.193 114.98 283.913 114.98C284.503 114.98 284.993 114.845 285.383 114.575C285.783 114.295 286.063 113.925 286.223 113.465H287.693C287.473 114.255 287.033 114.9 286.373 115.4C285.713 115.89 284.893 116.135 283.913 116.135C283.133 116.135 282.433 115.96 281.813 115.61C281.203 115.26 280.723 114.765 280.373 114.125C280.023 113.475 279.848 112.725 279.848 111.875C279.848 111.025 280.018 110.28 280.358 109.64C280.698 109 281.173 108.51 281.783 108.17C282.403 107.82 283.113 107.645 283.913 107.645C284.693 107.645 285.383 107.815 285.983 108.155C286.583 108.495 287.043 108.965 287.363 109.565C287.693 110.155 287.858 110.825 287.858 111.575ZM286.448 111.29C286.448 110.77 286.333 110.325 286.103 109.955C285.873 109.575 285.558 109.29 285.158 109.1C284.768 108.9 284.333 108.8 283.853 108.8C283.163 108.8 282.573 109.02 282.083 109.46C281.603 109.9 281.328 110.51 281.258 111.29H286.448ZM289.15 111.875C289.15 111.025 289.32 110.285 289.66 109.655C290 109.015 290.47 108.52 291.07 108.17C291.68 107.82 292.375 107.645 293.155 107.645C294.165 107.645 294.995 107.89 295.645 108.38C296.305 108.87 296.74 109.55 296.95 110.42H295.48C295.34 109.92 295.065 109.525 294.655 109.235C294.255 108.945 293.755 108.8 293.155 108.8C292.375 108.8 291.745 109.07 291.265 109.61C290.785 110.14 290.545 110.895 290.545 111.875C290.545 112.865 290.785 113.63 291.265 114.17C291.745 114.71 292.375 114.98 293.155 114.98C293.755 114.98 294.255 114.84 294.655 114.56C295.055 114.28 295.33 113.88 295.48 113.36H296.95C296.73 114.2 296.29 114.875 295.63 115.385C294.97 115.885 294.145 116.135 293.155 116.135C292.375 116.135 291.68 115.96 291.07 115.61C290.47 115.26 290 114.765 289.66 114.125C289.32 113.485 289.15 112.735 289.15 111.875ZM300.436 108.905V113.75C300.436 114.15 300.521 114.435 300.691 114.605C300.861 114.765 301.156 114.845 301.576 114.845H302.581V116H301.351C300.591 116 300.021 115.825 299.641 115.475C299.261 115.125 299.071 114.55 299.071 113.75V108.905H298.006V107.78H299.071V105.71H300.436V107.78H302.581V108.905H300.436ZM311.735 111.575C311.735 111.835 311.72 112.11 311.69 112.4H305.12C305.17 113.21 305.445 113.845 305.945 114.305C306.455 114.755 307.07 114.98 307.79 114.98C308.38 114.98 308.87 114.845 309.26 114.575C309.66 114.295 309.94 113.925 310.1 113.465H311.57C311.35 114.255 310.91 114.9 310.25 115.4C309.59 115.89 308.77 116.135 307.79 116.135C307.01 116.135 306.31 115.96 305.69 115.61C305.08 115.26 304.6 114.765 304.25 114.125C303.9 113.475 303.725 112.725 303.725 111.875C303.725 111.025 303.895 110.28 304.235 109.64C304.575 109 305.05 108.51 305.66 108.17C306.28 107.82 306.99 107.645 307.79 107.645C308.57 107.645 309.26 107.815 309.86 108.155C310.46 108.495 310.92 108.965 311.24 109.565C311.57 110.155 311.735 110.825 311.735 111.575ZM310.325 111.29C310.325 110.77 310.21 110.325 309.98 109.955C309.75 109.575 309.435 109.29 309.035 109.1C308.645 108.9 308.21 108.8 307.73 108.8C307.04 108.8 306.45 109.02 305.96 109.46C305.48 109.9 305.205 110.51 305.135 111.29H310.325ZM315.202 108.905V113.75C315.202 114.15 315.287 114.435 315.457 114.605C315.627 114.765 315.922 114.845 316.342 114.845H317.347V116H316.117C315.357 116 314.787 115.825 314.407 115.475C314.027 115.125 313.837 114.55 313.837 113.75V108.905H312.772V107.78H313.837V105.71H315.202V107.78H317.347V108.905H315.202ZM326.291 107.78V116H324.926V114.785C324.666 115.205 324.301 115.535 323.831 115.775C323.371 116.005 322.861 116.12 322.301 116.12C321.661 116.12 321.086 115.99 320.576 115.73C320.066 115.46 319.661 115.06 319.361 114.53C319.071 114 318.926 113.355 318.926 112.595V107.78H320.276V112.415C320.276 113.225 320.481 113.85 320.891 114.29C321.301 114.72 321.861 114.935 322.571 114.935C323.301 114.935 323.876 114.71 324.296 114.26C324.716 113.81 324.926 113.155 324.926 112.295V107.78H326.291ZM329.96 109.115C330.2 108.645 330.54 108.28 330.98 108.02C331.43 107.76 331.975 107.63 332.615 107.63V109.04H332.255C330.725 109.04 329.96 109.87 329.96 111.53V116H328.595V107.78H329.96V109.115ZM337.68 111.86C337.68 111.02 337.85 110.285 338.19 109.655C338.53 109.015 338.995 108.52 339.585 108.17C340.185 107.82 340.85 107.645 341.58 107.645C342.3 107.645 342.925 107.8 343.455 108.11C343.985 108.42 344.38 108.81 344.64 109.28V107.78H346.02V116H344.64V114.47C344.37 114.95 343.965 115.35 343.425 115.67C342.895 115.98 342.275 116.135 341.565 116.135C340.835 116.135 340.175 115.955 339.585 115.595C338.995 115.235 338.53 114.73 338.19 114.08C337.85 113.43 337.68 112.69 337.68 111.86ZM344.64 111.875C344.64 111.255 344.515 110.715 344.265 110.255C344.015 109.795 343.675 109.445 343.245 109.205C342.825 108.955 342.36 108.83 341.85 108.83C341.34 108.83 340.875 108.95 340.455 109.19C340.035 109.43 339.7 109.78 339.45 110.24C339.2 110.7 339.075 111.24 339.075 111.86C339.075 112.49 339.2 113.04 339.45 113.51C339.7 113.97 340.035 114.325 340.455 114.575C340.875 114.815 341.34 114.935 341.85 114.935C342.36 114.935 342.825 114.815 343.245 114.575C343.675 114.325 344.015 113.97 344.265 113.51C344.515 113.04 344.64 112.495 344.64 111.875ZM347.817 111.86C347.817 111.02 347.987 110.285 348.327 109.655C348.667 109.015 349.132 108.52 349.722 108.17C350.322 107.82 350.992 107.645 351.732 107.645C352.372 107.645 352.967 107.795 353.517 108.095C354.067 108.385 354.487 108.77 354.777 109.25V104.9H356.157V116H354.777V114.455C354.507 114.945 354.107 115.35 353.577 115.67C353.047 115.98 352.427 116.135 351.717 116.135C350.987 116.135 350.322 115.955 349.722 115.595C349.132 115.235 348.667 114.73 348.327 114.08C347.987 113.43 347.817 112.69 347.817 111.86ZM354.777 111.875C354.777 111.255 354.652 110.715 354.402 110.255C354.152 109.795 353.812 109.445 353.382 109.205C352.962 108.955 352.497 108.83 351.987 108.83C351.477 108.83 351.012 108.95 350.592 109.19C350.172 109.43 349.837 109.78 349.587 110.24C349.337 110.7 349.212 111.24 349.212 111.86C349.212 112.49 349.337 113.04 349.587 113.51C349.837 113.97 350.172 114.325 350.592 114.575C351.012 114.815 351.477 114.935 351.987 114.935C352.497 114.935 352.962 114.815 353.382 114.575C353.812 114.325 354.152 113.97 354.402 113.51C354.652 113.04 354.777 112.495 354.777 111.875ZM359.169 106.445C358.909 106.445 358.689 106.355 358.509 106.175C358.329 105.995 358.239 105.775 358.239 105.515C358.239 105.255 358.329 105.035 358.509 104.855C358.689 104.675 358.909 104.585 359.169 104.585C359.419 104.585 359.629 104.675 359.799 104.855C359.979 105.035 360.069 105.255 360.069 105.515C360.069 105.775 359.979 105.995 359.799 106.175C359.629 106.355 359.419 106.445 359.169 106.445ZM359.829 107.78V116H358.464V107.78H359.829ZM363.52 109.295C363.79 108.825 364.19 108.435 364.72 108.125C365.26 107.805 365.885 107.645 366.595 107.645C367.325 107.645 367.985 107.82 368.575 108.17C369.175 108.52 369.645 109.015 369.985 109.655C370.325 110.285 370.495 111.02 370.495 111.86C370.495 112.69 370.325 113.43 369.985 114.08C369.645 114.73 369.175 115.235 368.575 115.595C367.985 115.955 367.325 116.135 366.595 116.135C365.895 116.135 365.275 115.98 364.735 115.67C364.205 115.35 363.8 114.955 363.52 114.485V119.9H362.155V107.78H363.52V109.295ZM369.1 111.86C369.1 111.24 368.975 110.7 368.725 110.24C368.475 109.78 368.135 109.43 367.705 109.19C367.285 108.95 366.82 108.83 366.31 108.83C365.81 108.83 365.345 108.955 364.915 109.205C364.495 109.445 364.155 109.8 363.895 110.27C363.645 110.73 363.52 111.265 363.52 111.875C363.52 112.495 363.645 113.04 363.895 113.51C364.155 113.97 364.495 114.325 364.915 114.575C365.345 114.815 365.81 114.935 366.31 114.935C366.82 114.935 367.285 114.815 367.705 114.575C368.135 114.325 368.475 113.97 368.725 113.51C368.975 113.04 369.1 112.49 369.1 111.86ZM372.997 106.445C372.737 106.445 372.517 106.355 372.337 106.175C372.157 105.995 372.067 105.775 372.067 105.515C372.067 105.255 372.157 105.035 372.337 104.855C372.517 104.675 372.737 104.585 372.997 104.585C373.247 104.585 373.457 104.675 373.627 104.855C373.807 105.035 373.897 105.255 373.897 105.515C373.897 105.775 373.807 105.995 373.627 106.175C373.457 106.355 373.247 106.445 372.997 106.445ZM373.657 107.78V116H372.292V107.78H373.657ZM378.893 116.135C378.263 116.135 377.698 116.03 377.198 115.82C376.698 115.6 376.303 115.3 376.013 114.92C375.723 114.53 375.563 114.085 375.533 113.585H376.943C376.983 113.995 377.173 114.33 377.513 114.59C377.863 114.85 378.318 114.98 378.878 114.98C379.398 114.98 379.808 114.865 380.108 114.635C380.408 114.405 380.558 114.115 380.558 113.765C380.558 113.405 380.398 113.14 380.078 112.97C379.758 112.79 379.263 112.615 378.593 112.445C377.983 112.285 377.483 112.125 377.093 111.965C376.713 111.795 376.383 111.55 376.103 111.23C375.833 110.9 375.698 110.47 375.698 109.94C375.698 109.52 375.823 109.135 376.073 108.785C376.323 108.435 376.678 108.16 377.138 107.96C377.598 107.75 378.123 107.645 378.713 107.645C379.623 107.645 380.358 107.875 380.918 108.335C381.478 108.795 381.778 109.425 381.818 110.225H380.453C380.423 109.795 380.248 109.45 379.928 109.19C379.618 108.93 379.198 108.8 378.668 108.8C378.178 108.8 377.788 108.905 377.498 109.115C377.208 109.325 377.063 109.6 377.063 109.94C377.063 110.21 377.148 110.435 377.318 110.615C377.498 110.785 377.718 110.925 377.978 111.035C378.248 111.135 378.618 111.25 379.088 111.38C379.678 111.54 380.158 111.7 380.528 111.86C380.898 112.01 381.213 112.24 381.473 112.55C381.743 112.86 381.883 113.265 381.893 113.765C381.893 114.215 381.768 114.62 381.518 114.98C381.268 115.34 380.913 115.625 380.453 115.835C380.003 116.035 379.483 116.135 378.893 116.135ZM383.31 111.875C383.31 111.025 383.48 110.285 383.82 109.655C384.16 109.015 384.63 108.52 385.23 108.17C385.84 107.82 386.535 107.645 387.315 107.645C388.325 107.645 389.155 107.89 389.805 108.38C390.465 108.87 390.9 109.55 391.11 110.42H389.64C389.5 109.92 389.225 109.525 388.815 109.235C388.415 108.945 387.915 108.8 387.315 108.8C386.535 108.8 385.905 109.07 385.425 109.61C384.945 110.14 384.705 110.895 384.705 111.875C384.705 112.865 384.945 113.63 385.425 114.17C385.905 114.71 386.535 114.98 387.315 114.98C387.915 114.98 388.415 114.84 388.815 114.56C389.215 114.28 389.49 113.88 389.64 113.36H391.11C390.89 114.2 390.45 114.875 389.79 115.385C389.13 115.885 388.305 116.135 387.315 116.135C386.535 116.135 385.84 115.96 385.23 115.61C384.63 115.26 384.16 114.765 383.82 114.125C383.48 113.485 383.31 112.735 383.31 111.875ZM393.636 106.445C393.376 106.445 393.156 106.355 392.976 106.175C392.796 105.995 392.706 105.775 392.706 105.515C392.706 105.255 392.796 105.035 392.976 104.855C393.156 104.675 393.376 104.585 393.636 104.585C393.886 104.585 394.096 104.675 394.266 104.855C394.446 105.035 394.536 105.255 394.536 105.515C394.536 105.775 394.446 105.995 394.266 106.175C394.096 106.355 393.886 106.445 393.636 106.445ZM394.296 107.78V116H392.931V107.78H394.296ZM400.628 107.63C401.628 107.63 402.438 107.935 403.058 108.545C403.678 109.145 403.988 110.015 403.988 111.155V116H402.638V111.35C402.638 110.53 402.433 109.905 402.023 109.475C401.613 109.035 401.053 108.815 400.343 108.815C399.623 108.815 399.048 109.04 398.618 109.49C398.198 109.94 397.988 110.595 397.988 111.455V116H396.623V107.78H397.988V108.95C398.258 108.53 398.623 108.205 399.083 107.975C399.553 107.745 400.068 107.63 400.628 107.63ZM409.608 107.645C410.318 107.645 410.938 107.8 411.468 108.11C412.008 108.42 412.408 108.81 412.668 109.28V107.78H414.048V116.18C414.048 116.93 413.888 117.595 413.568 118.175C413.248 118.765 412.788 119.225 412.188 119.555C411.598 119.885 410.908 120.05 410.118 120.05C409.038 120.05 408.138 119.795 407.418 119.285C406.698 118.775 406.273 118.08 406.143 117.2H407.493C407.643 117.7 407.953 118.1 408.423 118.4C408.893 118.71 409.458 118.865 410.118 118.865C410.868 118.865 411.478 118.63 411.948 118.16C412.428 117.69 412.668 117.03 412.668 116.18V114.455C412.398 114.935 411.998 115.335 411.468 115.655C410.938 115.975 410.318 116.135 409.608 116.135C408.878 116.135 408.213 115.955 407.613 115.595C407.023 115.235 406.558 114.73 406.218 114.08C405.878 113.43 405.708 112.69 405.708 111.86C405.708 111.02 405.878 110.285 406.218 109.655C406.558 109.015 407.023 108.52 407.613 108.17C408.213 107.82 408.878 107.645 409.608 107.645ZM412.668 111.875C412.668 111.255 412.543 110.715 412.293 110.255C412.043 109.795 411.703 109.445 411.273 109.205C410.853 108.955 410.388 108.83 409.878 108.83C409.368 108.83 408.903 108.95 408.483 109.19C408.063 109.43 407.728 109.78 407.478 110.24C407.228 110.7 407.103 111.24 407.103 111.86C407.103 112.49 407.228 113.04 407.478 113.51C407.728 113.97 408.063 114.325 408.483 114.575C408.903 114.815 409.368 114.935 409.878 114.935C410.388 114.935 410.853 114.815 411.273 114.575C411.703 114.325 412.043 113.97 412.293 113.51C412.543 113.04 412.668 112.495 412.668 111.875ZM427.853 111.575C427.853 111.835 427.838 112.11 427.808 112.4H421.238C421.288 113.21 421.563 113.845 422.063 114.305C422.573 114.755 423.188 114.98 423.908 114.98C424.498 114.98 424.988 114.845 425.378 114.575C425.778 114.295 426.058 113.925 426.218 113.465H427.688C427.468 114.255 427.028 114.9 426.368 115.4C425.708 115.89 424.888 116.135 423.908 116.135C423.128 116.135 422.428 115.96 421.808 115.61C421.198 115.26 420.718 114.765 420.368 114.125C420.018 113.475 419.843 112.725 419.843 111.875C419.843 111.025 420.013 110.28 420.353 109.64C420.693 109 421.168 108.51 421.778 108.17C422.398 107.82 423.108 107.645 423.908 107.645C424.688 107.645 425.378 107.815 425.978 108.155C426.578 108.495 427.038 108.965 427.358 109.565C427.688 110.155 427.853 110.825 427.853 111.575ZM426.443 111.29C426.443 110.77 426.328 110.325 426.098 109.955C425.868 109.575 425.553 109.29 425.153 109.1C424.763 108.9 424.328 108.8 423.848 108.8C423.158 108.8 422.568 109.02 422.078 109.46C421.598 109.9 421.323 110.51 421.253 111.29H426.443ZM431.02 104.9V116H429.655V104.9H431.02ZM434.051 106.445C433.791 106.445 433.571 106.355 433.391 106.175C433.211 105.995 433.121 105.775 433.121 105.515C433.121 105.255 433.211 105.035 433.391 104.855C433.571 104.675 433.791 104.585 434.051 104.585C434.301 104.585 434.511 104.675 434.681 104.855C434.861 105.035 434.951 105.255 434.951 105.515C434.951 105.775 434.861 105.995 434.681 106.175C434.511 106.355 434.301 106.445 434.051 106.445ZM434.711 107.78V116H433.346V107.78H434.711ZM438.703 108.905V113.75C438.703 114.15 438.788 114.435 438.958 114.605C439.128 114.765 439.423 114.845 439.843 114.845H440.848V116H439.618C438.858 116 438.288 115.825 437.908 115.475C437.528 115.125 437.338 114.55 437.338 113.75V108.905H436.273V107.78H437.338V105.71H438.703V107.78H440.848V108.905H438.703ZM442.937 116.09C442.677 116.09 442.457 116 442.277 115.82C442.097 115.64 442.007 115.42 442.007 115.16C442.007 114.9 442.097 114.68 442.277 114.5C442.457 114.32 442.677 114.23 442.937 114.23C443.187 114.23 443.397 114.32 443.567 114.5C443.747 114.68 443.837 114.9 443.837 115.16C443.837 115.42 443.747 115.64 443.567 115.82C443.397 116 443.187 116.09 442.937 116.09ZM35.47 139.105C34.78 139.105 34.16 138.985 33.61 138.745C33.07 138.495 32.645 138.155 32.335 137.725C32.025 137.285 31.865 136.78 31.855 136.21H33.31C33.36 136.7 33.56 137.115 33.91 137.455C34.27 137.785 34.79 137.95 35.47 137.95C36.12 137.95 36.63 137.79 37 137.47C37.38 137.14 37.57 136.72 37.57 136.21C37.57 135.81 37.46 135.485 37.24 135.235C37.02 134.985 36.745 134.795 36.415 134.665C36.085 134.535 35.64 134.395 35.08 134.245C34.39 134.065 33.835 133.885 33.415 133.705C33.005 133.525 32.65 133.245 32.35 132.865C32.06 132.475 31.915 131.955 31.915 131.305C31.915 130.735 32.06 130.23 32.35 129.79C32.64 129.35 33.045 129.01 33.565 128.77C34.095 128.53 34.7 128.41 35.38 128.41C36.36 128.41 37.16 128.655 37.78 129.145C38.41 129.635 38.765 130.285 38.845 131.095H37.345C37.295 130.695 37.085 130.345 36.715 130.045C36.345 129.735 35.855 129.58 35.245 129.58C34.675 129.58 34.21 129.73 33.85 130.03C33.49 130.32 33.31 130.73 33.31 131.26C33.31 131.64 33.415 131.95 33.625 132.19C33.845 132.43 34.11 132.615 34.42 132.745C34.74 132.865 35.185 133.005 35.755 133.165C36.445 133.355 37 133.545 37.42 133.735C37.84 133.915 38.2 134.2 38.5 134.59C38.8 134.97 38.95 135.49 38.95 136.15C38.95 136.66 38.815 137.14 38.545 137.59C38.275 138.04 37.875 138.405 37.345 138.685C36.815 138.965 36.19 139.105 35.47 139.105ZM48.2487 130.78V139H46.8837V137.785C46.6237 138.205 46.2587 138.535 45.7887 138.775C45.3287 139.005 44.8187 139.12 44.2587 139.12C43.6187 139.12 43.0437 138.99 42.5337 138.73C42.0237 138.46 41.6187 138.06 41.3187 137.53C41.0287 137 40.8837 136.355 40.8837 135.595V130.78H42.2337V135.415C42.2337 136.225 42.4387 136.85 42.8487 137.29C43.2587 137.72 43.8187 137.935 44.5287 137.935C45.2587 137.935 45.8337 137.71 46.2537 137.26C46.6737 136.81 46.8837 136.155 46.8837 135.295V130.78H48.2487ZM53.4634 139.135C52.8334 139.135 52.2684 139.03 51.7684 138.82C51.2684 138.6 50.8734 138.3 50.5834 137.92C50.2934 137.53 50.1334 137.085 50.1034 136.585H51.5134C51.5534 136.995 51.7434 137.33 52.0834 137.59C52.4334 137.85 52.8884 137.98 53.4484 137.98C53.9684 137.98 54.3784 137.865 54.6784 137.635C54.9784 137.405 55.1284 137.115 55.1284 136.765C55.1284 136.405 54.9684 136.14 54.6484 135.97C54.3284 135.79 53.8334 135.615 53.1634 135.445C52.5534 135.285 52.0534 135.125 51.6634 134.965C51.2834 134.795 50.9534 134.55 50.6734 134.23C50.4034 133.9 50.2684 133.47 50.2684 132.94C50.2684 132.52 50.3934 132.135 50.6434 131.785C50.8934 131.435 51.2484 131.16 51.7084 130.96C52.1684 130.75 52.6934 130.645 53.2834 130.645C54.1934 130.645 54.9284 130.875 55.4884 131.335C56.0484 131.795 56.3484 132.425 56.3884 133.225H55.0234C54.9934 132.795 54.8184 132.45 54.4984 132.19C54.1884 131.93 53.7684 131.8 53.2384 131.8C52.7484 131.8 52.3584 131.905 52.0684 132.115C51.7784 132.325 51.6334 132.6 51.6334 132.94C51.6334 133.21 51.7184 133.435 51.8884 133.615C52.0684 133.785 52.2884 133.925 52.5484 134.035C52.8184 134.135 53.1884 134.25 53.6584 134.38C54.2484 134.54 54.7284 134.7 55.0984 134.86C55.4684 135.01 55.7834 135.24 56.0434 135.55C56.3134 135.86 56.4534 136.265 56.4634 136.765C56.4634 137.215 56.3384 137.62 56.0884 137.98C55.8384 138.34 55.4834 138.625 55.0234 138.835C54.5734 139.035 54.0534 139.135 53.4634 139.135ZM59.7554 132.295C60.0254 131.825 60.4254 131.435 60.9554 131.125C61.4954 130.805 62.1204 130.645 62.8304 130.645C63.5604 130.645 64.2204 130.82 64.8104 131.17C65.4104 131.52 65.8804 132.015 66.2204 132.655C66.5604 133.285 66.7304 134.02 66.7304 134.86C66.7304 135.69 66.5604 136.43 66.2204 137.08C65.8804 137.73 65.4104 138.235 64.8104 138.595C64.2204 138.955 63.5604 139.135 62.8304 139.135C62.1304 139.135 61.5104 138.98 60.9704 138.67C60.4404 138.35 60.0354 137.955 59.7554 137.485V142.9H58.3904V130.78H59.7554V132.295ZM65.3354 134.86C65.3354 134.24 65.2104 133.7 64.9604 133.24C64.7104 132.78 64.3704 132.43 63.9404 132.19C63.5204 131.95 63.0554 131.83 62.5454 131.83C62.0454 131.83 61.5804 131.955 61.1504 132.205C60.7304 132.445 60.3904 132.8 60.1304 133.27C59.8804 133.73 59.7554 134.265 59.7554 134.875C59.7554 135.495 59.8804 136.04 60.1304 136.51C60.3904 136.97 60.7304 137.325 61.1504 137.575C61.5804 137.815 62.0454 137.935 62.5454 137.935C63.0554 137.935 63.5204 137.815 63.9404 137.575C64.3704 137.325 64.7104 136.97 64.9604 136.51C65.2104 136.04 65.3354 135.49 65.3354 134.86ZM76.0271 134.575C76.0271 134.835 76.0121 135.11 75.9821 135.4H69.4121C69.4621 136.21 69.7371 136.845 70.2371 137.305C70.7471 137.755 71.3621 137.98 72.0821 137.98C72.6721 137.98 73.1621 137.845 73.5521 137.575C73.9521 137.295 74.2321 136.925 74.3921 136.465H75.8621C75.6421 137.255 75.2021 137.9 74.5421 138.4C73.8821 138.89 73.0621 139.135 72.0821 139.135C71.3021 139.135 70.6021 138.96 69.9821 138.61C69.3721 138.26 68.8921 137.765 68.5421 137.125C68.1921 136.475 68.0171 135.725 68.0171 134.875C68.0171 134.025 68.1871 133.28 68.5271 132.64C68.8671 132 69.3421 131.51 69.9521 131.17C70.5721 130.82 71.2821 130.645 72.0821 130.645C72.8621 130.645 73.5521 130.815 74.1521 131.155C74.7521 131.495 75.2121 131.965 75.5321 132.565C75.8621 133.155 76.0271 133.825 76.0271 134.575ZM74.6171 134.29C74.6171 133.77 74.5021 133.325 74.2721 132.955C74.0421 132.575 73.7271 132.29 73.3271 132.1C72.9371 131.9 72.5021 131.8 72.0221 131.8C71.3321 131.8 70.7421 132.02 70.2521 132.46C69.7721 132.9 69.4971 133.51 69.4271 134.29H74.6171ZM81.8338 130.63C82.8338 130.63 83.6438 130.935 84.2638 131.545C84.8838 132.145 85.1938 133.015 85.1938 134.155V139H83.8438V134.35C83.8438 133.53 83.6388 132.905 83.2288 132.475C82.8188 132.035 82.2588 131.815 81.5488 131.815C80.8288 131.815 80.2538 132.04 79.8238 132.49C79.4038 132.94 79.1938 133.595 79.1938 134.455V139H77.8288V130.78H79.1938V131.95C79.4638 131.53 79.8288 131.205 80.2888 130.975C80.7588 130.745 81.2738 130.63 81.8338 130.63ZM86.9136 134.86C86.9136 134.02 87.0836 133.285 87.4236 132.655C87.7636 132.015 88.2286 131.52 88.8186 131.17C89.4186 130.82 90.0886 130.645 90.8286 130.645C91.4686 130.645 92.0636 130.795 92.6136 131.095C93.1636 131.385 93.5836 131.77 93.8736 132.25V127.9H95.2536V139H93.8736V137.455C93.6036 137.945 93.2036 138.35 92.6736 138.67C92.1436 138.98 91.5236 139.135 90.8136 139.135C90.0836 139.135 89.4186 138.955 88.8186 138.595C88.2286 138.235 87.7636 137.73 87.4236 137.08C87.0836 136.43 86.9136 135.69 86.9136 134.86ZM93.8736 134.875C93.8736 134.255 93.7486 133.715 93.4986 133.255C93.2486 132.795 92.9086 132.445 92.4786 132.205C92.0586 131.955 91.5936 131.83 91.0836 131.83C90.5736 131.83 90.1086 131.95 89.6886 132.19C89.2686 132.43 88.9336 132.78 88.6836 133.24C88.4336 133.7 88.3086 134.24 88.3086 134.86C88.3086 135.49 88.4336 136.04 88.6836 136.51C88.9336 136.97 89.2686 137.325 89.6886 137.575C90.1086 137.815 90.5736 137.935 91.0836 137.935C91.5936 137.935 92.0586 137.815 92.4786 137.575C92.9086 137.325 93.2486 136.97 93.4986 136.51C93.7486 136.04 93.8736 135.495 93.8736 134.875ZM98.2653 129.445C98.0053 129.445 97.7853 129.355 97.6053 129.175C97.4253 128.995 97.3353 128.775 97.3353 128.515C97.3353 128.255 97.4253 128.035 97.6053 127.855C97.7853 127.675 98.0053 127.585 98.2653 127.585C98.5153 127.585 98.7253 127.675 98.8953 127.855C99.0753 128.035 99.1653 128.255 99.1653 128.515C99.1653 128.775 99.0753 128.995 98.8953 129.175C98.7253 129.355 98.5153 129.445 98.2653 129.445ZM98.9253 130.78V139H97.5603V130.78H98.9253ZM104.162 139.135C103.532 139.135 102.967 139.03 102.467 138.82C101.967 138.6 101.572 138.3 101.282 137.92C100.992 137.53 100.832 137.085 100.802 136.585H102.212C102.252 136.995 102.442 137.33 102.782 137.59C103.132 137.85 103.587 137.98 104.147 137.98C104.667 137.98 105.077 137.865 105.377 137.635C105.677 137.405 105.827 137.115 105.827 136.765C105.827 136.405 105.667 136.14 105.347 135.97C105.027 135.79 104.532 135.615 103.862 135.445C103.252 135.285 102.752 135.125 102.362 134.965C101.982 134.795 101.652 134.55 101.372 134.23C101.102 133.9 100.967 133.47 100.967 132.94C100.967 132.52 101.092 132.135 101.342 131.785C101.592 131.435 101.947 131.16 102.407 130.96C102.867 130.75 103.392 130.645 103.982 130.645C104.892 130.645 105.627 130.875 106.187 131.335C106.747 131.795 107.047 132.425 107.087 133.225H105.722C105.692 132.795 105.517 132.45 105.197 132.19C104.887 131.93 104.467 131.8 103.937 131.8C103.447 131.8 103.057 131.905 102.767 132.115C102.477 132.325 102.332 132.6 102.332 132.94C102.332 133.21 102.417 133.435 102.587 133.615C102.767 133.785 102.987 133.925 103.247 134.035C103.517 134.135 103.887 134.25 104.357 134.38C104.947 134.54 105.427 134.7 105.797 134.86C106.167 135.01 106.482 135.24 106.742 135.55C107.012 135.86 107.152 136.265 107.162 136.765C107.162 137.215 107.037 137.62 106.787 137.98C106.537 138.34 106.182 138.625 105.722 138.835C105.272 139.035 104.752 139.135 104.162 139.135ZM111.999 139.135C111.369 139.135 110.804 139.03 110.304 138.82C109.804 138.6 109.409 138.3 109.119 137.92C108.829 137.53 108.669 137.085 108.639 136.585H110.049C110.089 136.995 110.279 137.33 110.619 137.59C110.969 137.85 111.424 137.98 111.984 137.98C112.504 137.98 112.914 137.865 113.214 137.635C113.514 137.405 113.664 137.115 113.664 136.765C113.664 136.405 113.504 136.14 113.184 135.97C112.864 135.79 112.369 135.615 111.699 135.445C111.089 135.285 110.589 135.125 110.199 134.965C109.819 134.795 109.489 134.55 109.209 134.23C108.939 133.9 108.804 133.47 108.804 132.94C108.804 132.52 108.929 132.135 109.179 131.785C109.429 131.435 109.784 131.16 110.244 130.96C110.704 130.75 111.229 130.645 111.819 130.645C112.729 130.645 113.464 130.875 114.024 131.335C114.584 131.795 114.884 132.425 114.924 133.225H113.559C113.529 132.795 113.354 132.45 113.034 132.19C112.724 131.93 112.304 131.8 111.774 131.8C111.284 131.8 110.894 131.905 110.604 132.115C110.314 132.325 110.169 132.6 110.169 132.94C110.169 133.21 110.254 133.435 110.424 133.615C110.604 133.785 110.824 133.925 111.084 134.035C111.354 134.135 111.724 134.25 112.194 134.38C112.784 134.54 113.264 134.7 113.634 134.86C114.004 135.01 114.319 135.24 114.579 135.55C114.849 135.86 114.989 136.265 114.999 136.765C114.999 137.215 114.874 137.62 114.624 137.98C114.374 138.34 114.019 138.625 113.559 138.835C113.109 139.035 112.589 139.135 111.999 139.135ZM124.426 134.575C124.426 134.835 124.411 135.11 124.381 135.4H117.811C117.861 136.21 118.136 136.845 118.636 137.305C119.146 137.755 119.761 137.98 120.481 137.98C121.071 137.98 121.561 137.845 121.951 137.575C122.351 137.295 122.631 136.925 122.791 136.465H124.261C124.041 137.255 123.601 137.9 122.941 138.4C122.281 138.89 121.461 139.135 120.481 139.135C119.701 139.135 119.001 138.96 118.381 138.61C117.771 138.26 117.291 137.765 116.941 137.125C116.591 136.475 116.416 135.725 116.416 134.875C116.416 134.025 116.586 133.28 116.926 132.64C117.266 132 117.741 131.51 118.351 131.17C118.971 130.82 119.681 130.645 120.481 130.645C121.261 130.645 121.951 130.815 122.551 131.155C123.151 131.495 123.611 131.965 123.931 132.565C124.261 133.155 124.426 133.825 124.426 134.575ZM123.016 134.29C123.016 133.77 122.901 133.325 122.671 132.955C122.441 132.575 122.126 132.29 121.726 132.1C121.336 131.9 120.901 131.8 120.421 131.8C119.731 131.8 119.141 132.02 118.651 132.46C118.171 132.9 117.896 133.51 117.826 134.29H123.016ZM133.286 137.74L135.836 130.78H137.291L134.066 139H132.476L129.251 130.78H130.721L133.286 137.74ZM138.124 134.86C138.124 134.02 138.294 133.285 138.634 132.655C138.974 132.015 139.439 131.52 140.029 131.17C140.629 130.82 141.294 130.645 142.024 130.645C142.744 130.645 143.369 130.8 143.899 131.11C144.429 131.42 144.824 131.81 145.084 132.28V130.78H146.464V139H145.084V137.47C144.814 137.95 144.409 138.35 143.869 138.67C143.339 138.98 142.719 139.135 142.009 139.135C141.279 139.135 140.619 138.955 140.029 138.595C139.439 138.235 138.974 137.73 138.634 137.08C138.294 136.43 138.124 135.69 138.124 134.86ZM145.084 134.875C145.084 134.255 144.959 133.715 144.709 133.255C144.459 132.795 144.119 132.445 143.689 132.205C143.269 131.955 142.804 131.83 142.294 131.83C141.784 131.83 141.319 131.95 140.899 132.19C140.479 132.43 140.144 132.78 139.894 133.24C139.644 133.7 139.519 134.24 139.519 134.86C139.519 135.49 139.644 136.04 139.894 136.51C140.144 136.97 140.479 137.325 140.899 137.575C141.319 137.815 141.784 137.935 142.294 137.935C142.804 137.935 143.269 137.815 143.689 137.575C144.119 137.325 144.459 136.97 144.709 136.51C144.959 136.04 145.084 135.495 145.084 134.875ZM150.136 132.115C150.376 131.645 150.716 131.28 151.156 131.02C151.606 130.76 152.151 130.63 152.791 130.63V132.04H152.431C150.901 132.04 150.136 132.87 150.136 134.53V139H148.771V130.78H150.136V132.115ZM155.072 129.445C154.812 129.445 154.592 129.355 154.412 129.175C154.232 128.995 154.142 128.775 154.142 128.515C154.142 128.255 154.232 128.035 154.412 127.855C154.592 127.675 154.812 127.585 155.072 127.585C155.322 127.585 155.532 127.675 155.702 127.855C155.882 128.035 155.972 128.255 155.972 128.515C155.972 128.775 155.882 128.995 155.702 129.175C155.532 129.355 155.322 129.445 155.072 129.445ZM155.732 130.78V139H154.367V130.78H155.732ZM165.348 130.78V139H163.983V137.785C163.723 138.205 163.358 138.535 162.888 138.775C162.428 139.005 161.918 139.12 161.358 139.12C160.718 139.12 160.143 138.99 159.633 138.73C159.123 138.46 158.718 138.06 158.418 137.53C158.128 137 157.983 136.355 157.983 135.595V130.78H159.333V135.415C159.333 136.225 159.538 136.85 159.948 137.29C160.358 137.72 160.918 137.935 161.628 137.935C162.358 137.935 162.933 137.71 163.353 137.26C163.773 136.81 163.983 136.155 163.983 135.295V130.78H165.348ZM170.563 139.135C169.933 139.135 169.368 139.03 168.868 138.82C168.368 138.6 167.973 138.3 167.683 137.92C167.393 137.53 167.233 137.085 167.203 136.585H168.613C168.653 136.995 168.843 137.33 169.183 137.59C169.533 137.85 169.988 137.98 170.548 137.98C171.068 137.98 171.478 137.865 171.778 137.635C172.078 137.405 172.228 137.115 172.228 136.765C172.228 136.405 172.068 136.14 171.748 135.97C171.428 135.79 170.933 135.615 170.263 135.445C169.653 135.285 169.153 135.125 168.763 134.965C168.383 134.795 168.053 134.55 167.773 134.23C167.503 133.9 167.368 133.47 167.368 132.94C167.368 132.52 167.493 132.135 167.743 131.785C167.993 131.435 168.348 131.16 168.808 130.96C169.268 130.75 169.793 130.645 170.383 130.645C171.293 130.645 172.028 130.875 172.588 131.335C173.148 131.795 173.448 132.425 173.488 133.225H172.123C172.093 132.795 171.918 132.45 171.598 132.19C171.288 131.93 170.868 131.8 170.338 131.8C169.848 131.8 169.458 131.905 169.168 132.115C168.878 132.325 168.733 132.6 168.733 132.94C168.733 133.21 168.818 133.435 168.988 133.615C169.168 133.785 169.388 133.925 169.648 134.035C169.918 134.135 170.288 134.25 170.758 134.38C171.348 134.54 171.828 134.7 172.198 134.86C172.568 135.01 172.883 135.24 173.143 135.55C173.413 135.86 173.553 136.265 173.563 136.765C173.563 137.215 173.438 137.62 173.188 137.98C172.938 138.34 172.583 138.625 172.123 138.835C171.673 139.035 171.153 139.135 170.563 139.135ZM186.989 134.575C186.989 134.835 186.974 135.11 186.944 135.4H180.374C180.424 136.21 180.699 136.845 181.199 137.305C181.709 137.755 182.324 137.98 183.044 137.98C183.634 137.98 184.124 137.845 184.514 137.575C184.914 137.295 185.194 136.925 185.354 136.465H186.824C186.604 137.255 186.164 137.9 185.504 138.4C184.844 138.89 184.024 139.135 183.044 139.135C182.264 139.135 181.564 138.96 180.944 138.61C180.334 138.26 179.854 137.765 179.504 137.125C179.154 136.475 178.979 135.725 178.979 134.875C178.979 134.025 179.149 133.28 179.489 132.64C179.829 132 180.304 131.51 180.914 131.17C181.534 130.82 182.244 130.645 183.044 130.645C183.824 130.645 184.514 130.815 185.114 131.155C185.714 131.495 186.174 131.965 186.494 132.565C186.824 133.155 186.989 133.825 186.989 134.575ZM185.579 134.29C185.579 133.77 185.464 133.325 185.234 132.955C185.004 132.575 184.689 132.29 184.289 132.1C183.899 131.9 183.464 131.8 182.984 131.8C182.294 131.8 181.704 132.02 181.214 132.46C180.734 132.9 180.459 133.51 180.389 134.29H185.579ZM192.796 130.63C193.796 130.63 194.606 130.935 195.226 131.545C195.846 132.145 196.156 133.015 196.156 134.155V139H194.806V134.35C194.806 133.53 194.601 132.905 194.191 132.475C193.781 132.035 193.221 131.815 192.511 131.815C191.791 131.815 191.216 132.04 190.786 132.49C190.366 132.94 190.156 133.595 190.156 134.455V139H188.791V130.78H190.156V131.95C190.426 131.53 190.791 131.205 191.251 130.975C191.721 130.745 192.236 130.63 192.796 130.63ZM199.09 129.445C198.83 129.445 198.61 129.355 198.43 129.175C198.25 128.995 198.16 128.775 198.16 128.515C198.16 128.255 198.25 128.035 198.43 127.855C198.61 127.675 198.83 127.585 199.09 127.585C199.34 127.585 199.55 127.675 199.72 127.855C199.9 128.035 199.99 128.255 199.99 128.515C199.99 128.775 199.9 128.995 199.72 129.175C199.55 129.355 199.34 129.445 199.09 129.445ZM199.75 130.78V139H198.385V130.78H199.75ZM211.962 130.63C212.602 130.63 213.172 130.765 213.672 131.035C214.172 131.295 214.567 131.69 214.857 132.22C215.147 132.75 215.292 133.395 215.292 134.155V139H213.942V134.35C213.942 133.53 213.737 132.905 213.327 132.475C212.927 132.035 212.382 131.815 211.692 131.815C210.982 131.815 210.417 132.045 209.997 132.505C209.577 132.955 209.367 133.61 209.367 134.47V139H208.017V134.35C208.017 133.53 207.812 132.905 207.402 132.475C207.002 132.035 206.457 131.815 205.767 131.815C205.057 131.815 204.492 132.045 204.072 132.505C203.652 132.955 203.442 133.61 203.442 134.47V139H202.077V130.78H203.442V131.965C203.712 131.535 204.072 131.205 204.522 130.975C204.982 130.745 205.487 130.63 206.037 130.63C206.727 130.63 207.337 130.785 207.867 131.095C208.397 131.405 208.792 131.86 209.052 132.46C209.282 131.88 209.662 131.43 210.192 131.11C210.722 130.79 211.312 130.63 211.962 130.63ZM222.235 129.445C221.975 129.445 221.755 129.355 221.575 129.175C221.395 128.995 221.305 128.775 221.305 128.515C221.305 128.255 221.395 128.035 221.575 127.855C221.755 127.675 221.975 127.585 222.235 127.585C222.485 127.585 222.695 127.675 222.865 127.855C223.045 128.035 223.135 128.255 223.135 128.515C223.135 128.775 223.045 128.995 222.865 129.175C222.695 129.355 222.485 129.445 222.235 129.445ZM222.895 130.78V139H221.53V130.78H222.895ZM229.226 130.63C230.226 130.63 231.036 130.935 231.656 131.545C232.276 132.145 232.586 133.015 232.586 134.155V139H231.236V134.35C231.236 133.53 231.031 132.905 230.621 132.475C230.211 132.035 229.651 131.815 228.941 131.815C228.221 131.815 227.646 132.04 227.216 132.49C226.796 132.94 226.586 133.595 226.586 134.455V139H225.221V130.78H226.586V131.95C226.856 131.53 227.221 131.205 227.681 130.975C228.151 130.745 228.666 130.63 229.226 130.63ZM246.315 134.575C246.315 134.835 246.3 135.11 246.27 135.4H239.7C239.75 136.21 240.025 136.845 240.525 137.305C241.035 137.755 241.65 137.98 242.37 137.98C242.96 137.98 243.45 137.845 243.84 137.575C244.24 137.295 244.52 136.925 244.68 136.465H246.15C245.93 137.255 245.49 137.9 244.83 138.4C244.17 138.89 243.35 139.135 242.37 139.135C241.59 139.135 240.89 138.96 240.27 138.61C239.66 138.26 239.18 137.765 238.83 137.125C238.48 136.475 238.305 135.725 238.305 134.875C238.305 134.025 238.475 133.28 238.815 132.64C239.155 132 239.63 131.51 240.24 131.17C240.86 130.82 241.57 130.645 242.37 130.645C243.15 130.645 243.84 130.815 244.44 131.155C245.04 131.495 245.5 131.965 245.82 132.565C246.15 133.155 246.315 133.825 246.315 134.575ZM244.905 134.29C244.905 133.77 244.79 133.325 244.56 132.955C244.33 132.575 244.015 132.29 243.615 132.1C243.225 131.9 242.79 131.8 242.31 131.8C241.62 131.8 241.03 132.02 240.54 132.46C240.06 132.9 239.785 133.51 239.715 134.29H244.905ZM249.482 132.115C249.722 131.645 250.062 131.28 250.502 131.02C250.952 130.76 251.497 130.63 252.137 130.63V132.04H251.777C250.247 132.04 249.482 132.87 249.482 134.53V139H248.117V130.78H249.482V132.115ZM257.298 139.135C256.528 139.135 255.828 138.96 255.198 138.61C254.578 138.26 254.088 137.765 253.728 137.125C253.378 136.475 253.203 135.725 253.203 134.875C253.203 134.035 253.383 133.295 253.743 132.655C254.113 132.005 254.613 131.51 255.243 131.17C255.873 130.82 256.578 130.645 257.358 130.645C258.138 130.645 258.843 130.82 259.473 131.17C260.103 131.51 260.598 132 260.958 132.64C261.328 133.28 261.513 134.025 261.513 134.875C261.513 135.725 261.323 136.475 260.943 137.125C260.573 137.765 260.068 138.26 259.428 138.61C258.788 138.96 258.078 139.135 257.298 139.135ZM257.298 137.935C257.788 137.935 258.248 137.82 258.678 137.59C259.108 137.36 259.453 137.015 259.713 136.555C259.983 136.095 260.118 135.535 260.118 134.875C260.118 134.215 259.988 133.655 259.728 133.195C259.468 132.735 259.128 132.395 258.708 132.175C258.288 131.945 257.833 131.83 257.343 131.83C256.843 131.83 256.383 131.945 255.963 132.175C255.553 132.395 255.223 132.735 254.973 133.195C254.723 133.655 254.598 134.215 254.598 134.875C254.598 135.545 254.718 136.11 254.958 136.57C255.208 137.03 255.538 137.375 255.948 137.605C256.358 137.825 256.808 137.935 257.298 137.935ZM266.217 139.135C265.587 139.135 265.022 139.03 264.522 138.82C264.022 138.6 263.627 138.3 263.337 137.92C263.047 137.53 262.887 137.085 262.857 136.585H264.267C264.307 136.995 264.497 137.33 264.837 137.59C265.187 137.85 265.642 137.98 266.202 137.98C266.722 137.98 267.132 137.865 267.432 137.635C267.732 137.405 267.882 137.115 267.882 136.765C267.882 136.405 267.722 136.14 267.402 135.97C267.082 135.79 266.587 135.615 265.917 135.445C265.307 135.285 264.807 135.125 264.417 134.965C264.037 134.795 263.707 134.55 263.427 134.23C263.157 133.9 263.022 133.47 263.022 132.94C263.022 132.52 263.147 132.135 263.397 131.785C263.647 131.435 264.002 131.16 264.462 130.96C264.922 130.75 265.447 130.645 266.037 130.645C266.947 130.645 267.682 130.875 268.242 131.335C268.802 131.795 269.102 132.425 269.142 133.225H267.777C267.747 132.795 267.572 132.45 267.252 132.19C266.942 131.93 266.522 131.8 265.992 131.8C265.502 131.8 265.112 131.905 264.822 132.115C264.532 132.325 264.387 132.6 264.387 132.94C264.387 133.21 264.472 133.435 264.642 133.615C264.822 133.785 265.042 133.925 265.302 134.035C265.572 134.135 265.942 134.25 266.412 134.38C267.002 134.54 267.482 134.7 267.852 134.86C268.222 135.01 268.537 135.24 268.797 135.55C269.067 135.86 269.207 136.265 269.217 136.765C269.217 137.215 269.092 137.62 268.842 137.98C268.592 138.34 268.237 138.625 267.777 138.835C267.327 139.035 266.807 139.135 266.217 139.135ZM282.643 134.575C282.643 134.835 282.628 135.11 282.598 135.4H276.028C276.078 136.21 276.353 136.845 276.853 137.305C277.363 137.755 277.978 137.98 278.698 137.98C279.288 137.98 279.778 137.845 280.168 137.575C280.568 137.295 280.848 136.925 281.008 136.465H282.478C282.258 137.255 281.818 137.9 281.158 138.4C280.498 138.89 279.678 139.135 278.698 139.135C277.918 139.135 277.218 138.96 276.598 138.61C275.988 138.26 275.508 137.765 275.158 137.125C274.808 136.475 274.633 135.725 274.633 134.875C274.633 134.025 274.803 133.28 275.143 132.64C275.483 132 275.958 131.51 276.568 131.17C277.188 130.82 277.898 130.645 278.698 130.645C279.478 130.645 280.168 130.815 280.768 131.155C281.368 131.495 281.828 131.965 282.148 132.565C282.478 133.155 282.643 133.825 282.643 134.575ZM281.233 134.29C281.233 133.77 281.118 133.325 280.888 132.955C280.658 132.575 280.343 132.29 279.943 132.1C279.553 131.9 279.118 131.8 278.638 131.8C277.948 131.8 277.358 132.02 276.868 132.46C276.388 132.9 276.113 133.51 276.043 134.29H281.233ZM285.81 127.9V139H284.445V127.9H285.81ZM295.636 134.575C295.636 134.835 295.621 135.11 295.591 135.4H289.021C289.071 136.21 289.346 136.845 289.846 137.305C290.356 137.755 290.971 137.98 291.691 137.98C292.281 137.98 292.771 137.845 293.161 137.575C293.561 137.295 293.841 136.925 294.001 136.465H295.471C295.251 137.255 294.811 137.9 294.151 138.4C293.491 138.89 292.671 139.135 291.691 139.135C290.911 139.135 290.211 138.96 289.591 138.61C288.981 138.26 288.501 137.765 288.151 137.125C287.801 136.475 287.626 135.725 287.626 134.875C287.626 134.025 287.796 133.28 288.136 132.64C288.476 132 288.951 131.51 289.561 131.17C290.181 130.82 290.891 130.645 291.691 130.645C292.471 130.645 293.161 130.815 293.761 131.155C294.361 131.495 294.821 131.965 295.141 132.565C295.471 133.155 295.636 133.825 295.636 134.575ZM294.226 134.29C294.226 133.77 294.111 133.325 293.881 132.955C293.651 132.575 293.336 132.29 292.936 132.1C292.546 131.9 292.111 131.8 291.631 131.8C290.941 131.8 290.351 132.02 289.861 132.46C289.381 132.9 289.106 133.51 289.036 134.29H294.226ZM307.323 130.63C307.963 130.63 308.533 130.765 309.033 131.035C309.533 131.295 309.928 131.69 310.218 132.22C310.508 132.75 310.653 133.395 310.653 134.155V139H309.303V134.35C309.303 133.53 309.098 132.905 308.688 132.475C308.288 132.035 307.743 131.815 307.053 131.815C306.343 131.815 305.778 132.045 305.358 132.505C304.938 132.955 304.728 133.61 304.728 134.47V139H303.378V134.35C303.378 133.53 303.173 132.905 302.763 132.475C302.363 132.035 301.818 131.815 301.128 131.815C300.418 131.815 299.853 132.045 299.433 132.505C299.013 132.955 298.803 133.61 298.803 134.47V139H297.438V130.78H298.803V131.965C299.073 131.535 299.433 131.205 299.883 130.975C300.343 130.745 300.848 130.63 301.398 130.63C302.088 130.63 302.698 130.785 303.228 131.095C303.758 131.405 304.153 131.86 304.413 132.46C304.643 131.88 305.023 131.43 305.553 131.11C306.083 130.79 306.673 130.63 307.323 130.63ZM320.392 134.575C320.392 134.835 320.377 135.11 320.347 135.4H313.777C313.827 136.21 314.102 136.845 314.602 137.305C315.112 137.755 315.727 137.98 316.447 137.98C317.037 137.98 317.527 137.845 317.917 137.575C318.317 137.295 318.597 136.925 318.757 136.465H320.227C320.007 137.255 319.567 137.9 318.907 138.4C318.247 138.89 317.427 139.135 316.447 139.135C315.667 139.135 314.967 138.96 314.347 138.61C313.737 138.26 313.257 137.765 312.907 137.125C312.557 136.475 312.382 135.725 312.382 134.875C312.382 134.025 312.552 133.28 312.892 132.64C313.232 132 313.707 131.51 314.317 131.17C314.937 130.82 315.647 130.645 316.447 130.645C317.227 130.645 317.917 130.815 318.517 131.155C319.117 131.495 319.577 131.965 319.897 132.565C320.227 133.155 320.392 133.825 320.392 134.575ZM318.982 134.29C318.982 133.77 318.867 133.325 318.637 132.955C318.407 132.575 318.092 132.29 317.692 132.1C317.302 131.9 316.867 131.8 316.387 131.8C315.697 131.8 315.107 132.02 314.617 132.46C314.137 132.9 313.862 133.51 313.792 134.29H318.982ZM326.199 130.63C327.199 130.63 328.009 130.935 328.629 131.545C329.249 132.145 329.559 133.015 329.559 134.155V139H328.209V134.35C328.209 133.53 328.004 132.905 327.594 132.475C327.184 132.035 326.624 131.815 325.914 131.815C325.194 131.815 324.619 132.04 324.189 132.49C323.769 132.94 323.559 133.595 323.559 134.455V139H322.194V130.78H323.559V131.95C323.829 131.53 324.194 131.205 324.654 130.975C325.124 130.745 325.639 130.63 326.199 130.63ZM333.454 131.905V136.75C333.454 137.15 333.539 137.435 333.709 137.605C333.879 137.765 334.174 137.845 334.594 137.845H335.599V139H334.369C333.609 139 333.039 138.825 332.659 138.475C332.279 138.125 332.089 137.55 332.089 136.75V131.905H331.024V130.78H332.089V128.71H333.454V130.78H335.599V131.905H333.454ZM344.543 130.78V139H343.178V137.785C342.918 138.205 342.553 138.535 342.083 138.775C341.623 139.005 341.113 139.12 340.553 139.12C339.913 139.12 339.338 138.99 338.828 138.73C338.318 138.46 337.913 138.06 337.613 137.53C337.323 137 337.178 136.355 337.178 135.595V130.78H338.528V135.415C338.528 136.225 338.733 136.85 339.143 137.29C339.553 137.72 340.113 137.935 340.823 137.935C341.553 137.935 342.128 137.71 342.548 137.26C342.968 136.81 343.178 136.155 343.178 135.295V130.78H344.543ZM356.732 130.63C357.372 130.63 357.942 130.765 358.442 131.035C358.942 131.295 359.337 131.69 359.627 132.22C359.917 132.75 360.062 133.395 360.062 134.155V139H358.712V134.35C358.712 133.53 358.507 132.905 358.097 132.475C357.697 132.035 357.152 131.815 356.462 131.815C355.752 131.815 355.187 132.045 354.767 132.505C354.347 132.955 354.137 133.61 354.137 134.47V139H352.787V134.35C352.787 133.53 352.582 132.905 352.172 132.475C351.772 132.035 351.227 131.815 350.537 131.815C349.827 131.815 349.262 132.045 348.842 132.505C348.422 132.955 348.212 133.61 348.212 134.47V139H346.847V130.78H348.212V131.965C348.482 131.535 348.842 131.205 349.292 130.975C349.752 130.745 350.257 130.63 350.807 130.63C351.497 130.63 352.107 130.785 352.637 131.095C353.167 131.405 353.562 131.86 353.822 132.46C354.052 131.88 354.432 131.43 354.962 131.11C355.492 130.79 356.082 130.63 356.732 130.63ZM367.966 131.905V136.75C367.966 137.15 368.051 137.435 368.221 137.605C368.391 137.765 368.686 137.845 369.106 137.845H370.111V139H368.881C368.121 139 367.551 138.825 367.171 138.475C366.791 138.125 366.601 137.55 366.601 136.75V131.905H365.536V130.78H366.601V128.71H367.966V130.78H370.111V131.905H367.966ZM373.129 132.115C373.369 131.645 373.709 131.28 374.149 131.02C374.599 130.76 375.144 130.63 375.784 130.63V132.04H375.424C373.894 132.04 373.129 132.87 373.129 134.53V139H371.764V130.78H373.129V132.115ZM378.065 129.445C377.805 129.445 377.585 129.355 377.405 129.175C377.225 128.995 377.135 128.775 377.135 128.515C377.135 128.255 377.225 128.035 377.405 127.855C377.585 127.675 377.805 127.585 378.065 127.585C378.315 127.585 378.525 127.675 378.695 127.855C378.875 128.035 378.965 128.255 378.965 128.515C378.965 128.775 378.875 128.995 378.695 129.175C378.525 129.355 378.315 129.445 378.065 129.445ZM378.725 130.78V139H377.36V130.78H378.725ZM383.961 139.135C383.331 139.135 382.766 139.03 382.266 138.82C381.766 138.6 381.371 138.3 381.081 137.92C380.791 137.53 380.631 137.085 380.601 136.585H382.011C382.051 136.995 382.241 137.33 382.581 137.59C382.931 137.85 383.386 137.98 383.946 137.98C384.466 137.98 384.876 137.865 385.176 137.635C385.476 137.405 385.626 137.115 385.626 136.765C385.626 136.405 385.466 136.14 385.146 135.97C384.826 135.79 384.331 135.615 383.661 135.445C383.051 135.285 382.551 135.125 382.161 134.965C381.781 134.795 381.451 134.55 381.171 134.23C380.901 133.9 380.766 133.47 380.766 132.94C380.766 132.52 380.891 132.135 381.141 131.785C381.391 131.435 381.746 131.16 382.206 130.96C382.666 130.75 383.191 130.645 383.781 130.645C384.691 130.645 385.426 130.875 385.986 131.335C386.546 131.795 386.846 132.425 386.886 133.225H385.521C385.491 132.795 385.316 132.45 384.996 132.19C384.686 131.93 384.266 131.8 383.736 131.8C383.246 131.8 382.856 131.905 382.566 132.115C382.276 132.325 382.131 132.6 382.131 132.94C382.131 133.21 382.216 133.435 382.386 133.615C382.566 133.785 382.786 133.925 383.046 134.035C383.316 134.135 383.686 134.25 384.156 134.38C384.746 134.54 385.226 134.7 385.596 134.86C385.966 135.01 386.281 135.24 386.541 135.55C386.811 135.86 386.951 136.265 386.961 136.765C386.961 137.215 386.836 137.62 386.586 137.98C386.336 138.34 385.981 138.625 385.521 138.835C385.071 139.035 384.551 139.135 383.961 139.135ZM390.553 131.905V136.75C390.553 137.15 390.638 137.435 390.808 137.605C390.978 137.765 391.273 137.845 391.693 137.845H392.698V139H391.468C390.708 139 390.138 138.825 389.758 138.475C389.378 138.125 389.188 137.55 389.188 136.75V131.905H388.123V130.78H389.188V128.71H390.553V130.78H392.698V131.905H390.553ZM395.057 129.445C394.797 129.445 394.577 129.355 394.397 129.175C394.217 128.995 394.127 128.775 394.127 128.515C394.127 128.255 394.217 128.035 394.397 127.855C394.577 127.675 394.797 127.585 395.057 127.585C395.307 127.585 395.517 127.675 395.687 127.855C395.867 128.035 395.957 128.255 395.957 128.515C395.957 128.775 395.867 128.995 395.687 129.175C395.517 129.355 395.307 129.445 395.057 129.445ZM395.717 130.78V139H394.352V130.78H395.717ZM397.534 134.86C397.534 134.02 397.704 133.285 398.044 132.655C398.384 132.015 398.849 131.52 399.439 131.17C400.039 130.82 400.709 130.645 401.449 130.645C402.159 130.645 402.779 130.805 403.309 131.125C403.849 131.435 404.244 131.82 404.494 132.28V130.78H405.874V142.9H404.494V137.485C404.234 137.945 403.834 138.335 403.294 138.655C402.754 138.975 402.124 139.135 401.404 139.135C400.684 139.135 400.029 138.955 399.439 138.595C398.849 138.235 398.384 137.73 398.044 137.08C397.704 136.43 397.534 135.69 397.534 134.86ZM404.494 134.875C404.494 134.255 404.369 133.715 404.119 133.255C403.869 132.795 403.529 132.445 403.099 132.205C402.679 131.955 402.214 131.83 401.704 131.83C401.194 131.83 400.729 131.95 400.309 132.19C399.889 132.43 399.554 132.78 399.304 133.24C399.054 133.7 398.929 134.24 398.929 134.86C398.929 135.49 399.054 136.04 399.304 136.51C399.554 136.97 399.889 137.325 400.309 137.575C400.729 137.815 401.194 137.935 401.704 137.935C402.214 137.935 402.679 137.815 403.099 137.575C403.529 137.325 403.869 136.97 404.119 136.51C404.369 136.04 404.494 135.495 404.494 134.875ZM415.47 130.78V139H414.105V137.785C413.845 138.205 413.48 138.535 413.01 138.775C412.55 139.005 412.04 139.12 411.48 139.12C410.84 139.12 410.265 138.99 409.755 138.73C409.245 138.46 408.84 138.06 408.54 137.53C408.25 137 408.105 136.355 408.105 135.595V130.78H409.455V135.415C409.455 136.225 409.66 136.85 410.07 137.29C410.48 137.72 411.04 137.935 411.75 137.935C412.48 137.935 413.055 137.71 413.475 137.26C413.895 136.81 414.105 136.155 414.105 135.295V130.78H415.47ZM425.275 134.575C425.275 134.835 425.26 135.11 425.23 135.4H418.66C418.71 136.21 418.985 136.845 419.485 137.305C419.995 137.755 420.61 137.98 421.33 137.98C421.92 137.98 422.41 137.845 422.8 137.575C423.2 137.295 423.48 136.925 423.64 136.465H425.11C424.89 137.255 424.45 137.9 423.79 138.4C423.13 138.89 422.31 139.135 421.33 139.135C420.55 139.135 419.85 138.96 419.23 138.61C418.62 138.26 418.14 137.765 417.79 137.125C417.44 136.475 417.265 135.725 417.265 134.875C417.265 134.025 417.435 133.28 417.775 132.64C418.115 132 418.59 131.51 419.2 131.17C419.82 130.82 420.53 130.645 421.33 130.645C422.11 130.645 422.8 130.815 423.4 131.155C424 131.495 424.46 131.965 424.78 132.565C425.11 133.155 425.275 133.825 425.275 134.575ZM423.865 134.29C423.865 133.77 423.75 133.325 423.52 132.955C423.29 132.575 422.975 132.29 422.575 132.1C422.185 131.9 421.75 131.8 421.27 131.8C420.58 131.8 419.99 132.02 419.5 132.46C419.02 132.9 418.745 133.51 418.675 134.29H423.865ZM427.512 139.09C427.252 139.09 427.032 139 426.852 138.82C426.672 138.64 426.582 138.42 426.582 138.16C426.582 137.9 426.672 137.68 426.852 137.5C427.032 137.32 427.252 137.23 427.512 137.23C427.762 137.23 427.972 137.32 428.142 137.5C428.322 137.68 428.412 137.9 428.412 138.16C428.412 138.42 428.322 138.64 428.142 138.82C427.972 139 427.762 139.09 427.512 139.09Z" fill="#333333"/>
<defs>
<clipPath id="clip0_4_426">
<rect width="18" height="18" fill="white" transform="translate(31 34)"/>
</clipPath>
<clipPath id="clip1_4_426">
<rect width="18" height="18" fill="white" transform="translate(71 34)"/>
</clipPath>
<clipPath id="clip2_4_426">
<rect width="18" height="18" fill="white" transform="translate(51 34)"/>
</clipPath>
<clipPath id="clip3_4_426">
<rect width="18" height="18" fill="white" transform="translate(91 34)"/>
</clipPath>
</defs>
</svg>
